<svg width="105" height="28" viewBox="0 0 105 28" fill="none" xmlns="http://www.w3.org/2000/svg">
<g clip-path="url(#clip0_599_10701)">
<path fill-rule="evenodd" clip-rule="evenodd" d="M104.458 4.84066C104.087 4.42486 103.59 4.21346 102.918 4.21346C102.246 4.21346 101.734 4.43606 101.377 4.89526C101.02 5.33906 100.835 6.00546 100.835 6.87906V13.2127C100.009 12.3223 99.1509 11.6839 98.2801 11.2541C97.68 10.9715 97.0395 10.7839 96.3817 10.6983C95.9469 10.6406 95.5086 10.6125 95.0699 10.6143C92.8873 10.6143 91.1191 11.3647 89.7625 12.8655C88.4213 14.3663 87.7493 16.4495 87.7493 19.1263C87.7493 20.3919 87.9215 21.5721 88.2631 22.6543C88.6075 23.7351 89.0891 24.6815 89.7471 25.4851C90.3825 26.2676 91.1802 26.9029 92.0851 27.3471C92.998 27.783 93.9981 28.0056 95.0097 27.9981C95.4927 27.9981 95.9505 27.9575 96.3775 27.8749C96.6645 27.8329 96.9333 27.7629 97.2063 27.6789C97.8724 27.4581 98.5022 27.1402 99.0753 26.7353C99.717 26.2641 100.305 25.7243 100.83 25.1253V25.5411C100.83 26.3321 101.03 26.9299 101.415 27.3611C101.815 27.7769 102.315 27.9981 102.913 27.9981C103.526 27.9981 104.024 27.7895 104.411 27.3891C104.793 26.9719 104.995 26.3615 104.995 25.5439V6.66066C105 5.86686 104.815 5.25506 104.458 4.84066ZM100.022 22.3085C99.6367 23.1135 99.1215 23.7113 98.4957 24.1005C97.8517 24.4911 97.1517 24.6829 96.3817 24.6829H96.3677C95.6197 24.6863 94.8865 24.4749 94.2551 24.0739C93.6125 23.6567 93.1001 23.0463 92.7305 22.2413C92.3609 21.4223 92.1761 20.4353 92.1761 19.2691C92.1761 18.1715 92.3455 17.2013 92.7039 16.3823C93.0469 15.5479 93.5453 14.9095 94.1739 14.4671C94.8179 14.0079 95.5319 13.7993 96.3411 13.7993H96.3831C97.1405 13.7993 97.8391 14.0205 98.4817 14.4503C99.1243 14.8815 99.6367 15.5087 100.022 16.3263C100.407 17.1453 100.593 18.1323 100.593 19.2691C100.593 20.4899 100.407 21.5049 100.022 22.3085V22.3085ZM86.1673 22.4905C85.8957 22.2553 85.5247 22.1293 85.0683 22.1293C84.6539 22.1293 84.3403 22.2273 84.1121 22.4079C83.5549 22.9063 83.1139 23.3095 82.7681 23.6007C82.4293 23.8793 82.0401 24.1565 81.6299 24.4183C81.2423 24.6665 80.8194 24.8548 80.3755 24.9769C79.9053 25.1023 79.4201 25.1626 78.9335 25.1561C78.8201 25.1561 78.7053 25.1561 78.6045 25.1421C77.9603 25.1081 77.334 24.9173 76.7803 24.5863C76.1223 24.2125 75.6099 23.6595 75.2095 22.9357C74.8245 22.1853 74.6243 21.3257 74.6117 20.3527H83.2147C84.3697 20.3527 85.2671 20.1847 85.8957 19.8809C86.5397 19.5463 86.8519 18.8519 86.8519 17.7837C86.8519 16.6175 86.5383 15.4793 85.9251 14.3537C85.3119 13.2407 84.3991 12.3251 83.1587 11.6195C81.9295 10.9111 80.4609 10.5639 78.7347 10.5639H78.6073C77.3375 10.5779 76.1671 10.7879 75.1269 11.1757C74.0919 11.5646 73.1521 12.1703 72.3703 12.9523C71.6236 13.7568 71.0515 14.7073 70.6903 15.7439C70.294 16.8766 70.0952 18.069 70.1023 19.2691C70.1023 21.9641 70.8891 24.0739 72.4571 25.6419C73.9411 27.1287 75.9949 27.9071 78.6045 27.9897C78.7487 28.0037 78.9027 28.0037 79.0623 28.0037C80.2887 28.0037 81.3863 27.8497 82.3411 27.5319C83.2973 27.2127 84.0827 26.8221 84.7127 26.3517C85.3371 25.8659 85.8089 25.3661 86.1225 24.8537C86.4361 24.3399 86.5943 23.8807 86.5943 23.5055C86.5943 23.0715 86.4543 22.7257 86.1673 22.4905V22.4905ZM75.8969 14.6435C76.5969 13.9071 77.4943 13.5459 78.5933 13.5459H78.6101C79.7497 13.5459 80.6779 13.9071 81.3765 14.6281C82.0765 15.3519 82.4895 16.4481 82.5903 17.9181H74.6131C74.7545 16.4761 75.1843 15.3785 75.8969 14.6435V14.6435ZM67.4339 22.1279C67.0069 22.1279 66.6933 22.2259 66.4651 22.4051C65.9233 22.9049 65.4669 23.3081 65.1239 23.5993C64.7809 23.8765 64.4099 24.1551 63.9955 24.4169C63.5839 24.6675 63.1681 24.8621 62.7271 24.9741C62.2571 25.1005 61.7718 25.1608 61.2851 25.1533C61.1731 25.1533 61.0583 25.1533 60.9575 25.1393C60.313 25.1053 59.6865 24.915 59.1319 24.5849C58.4691 24.1911 57.9305 23.6185 57.5779 22.9329C57.1775 22.1839 56.9773 21.3229 56.9619 20.3513H65.5789C66.7199 20.3513 67.6173 20.1833 68.2599 19.8781C68.8871 19.5449 69.2035 18.8505 69.2035 17.7823C69.2035 16.6147 68.9025 15.4765 68.2893 14.3523C67.6761 13.2393 66.7493 12.3223 65.5229 11.6167C64.2937 10.9097 62.8111 10.5625 61.1017 10.5625H60.9575C59.6891 10.5765 58.5341 10.7865 57.4771 11.1743C56.4451 11.5587 55.5099 12.1646 54.7373 12.9495C53.9799 13.749 53.4015 14.7006 53.0405 15.7411C52.6432 16.8736 52.4443 18.0661 52.4525 19.2663C52.4525 21.9613 53.2533 24.0711 54.8213 25.6391C56.3053 27.1273 58.3451 27.9043 60.9561 27.9869C61.1129 28.0009 61.2529 28.0009 61.4125 28.0009C62.6529 28.0009 63.7379 27.8483 64.6927 27.5305C65.6475 27.2099 66.4343 26.8207 67.0601 26.3503C67.7041 25.8631 68.1591 25.3647 68.4741 24.8523C68.7863 24.3385 68.9459 23.8793 68.9459 23.5027C68.9459 23.0729 68.8017 22.7257 68.5315 22.4905C68.2487 22.2525 67.8749 22.1265 67.4339 22.1265V22.1279ZM58.2471 14.6435C58.9457 13.9071 59.8459 13.5459 60.9449 13.5459H60.9603C62.0999 13.5459 63.0281 13.9071 63.7267 14.6281C64.4393 15.3519 64.8397 16.4481 64.9545 17.9181H56.9647C57.1215 16.4761 57.5513 15.3785 58.2471 14.6435V14.6435ZM9.16592 25.1561V14.9347C9.46272 14.9627 9.74972 14.9753 10.0493 14.9753C11.4217 14.9817 12.7709 14.6221 13.9581 13.9337V25.1533C13.9581 26.1123 13.7299 26.8193 13.2861 27.2925C12.8451 27.7629 12.2599 27.9981 11.5473 27.9981C10.8473 27.9981 10.2915 27.7629 9.83512 27.2771C9.39412 26.8067 9.16592 26.0983 9.16592 25.1561V25.1561ZM50.6059 4.84206C50.2349 4.42486 49.7225 4.21346 49.0799 4.21346C48.4079 4.21346 47.8955 4.43606 47.5371 4.89526C47.1675 5.33906 46.9953 6.00546 46.9953 6.87906V13.2127C46.1693 12.3223 45.3153 11.6839 44.4417 11.2541C43.8418 10.9733 43.2026 10.7859 42.5461 10.6983C42.1108 10.6404 41.6721 10.6124 41.2329 10.6143C39.0503 10.6143 37.2667 11.3647 35.9269 12.8655C34.5843 14.3663 33.9137 16.4495 33.9137 19.1263C33.9137 20.3919 34.0859 21.5721 34.4121 22.6543C34.7271 23.685 35.2365 24.6459 35.9129 25.4851C36.5479 26.2681 37.3457 26.9035 38.2509 27.3471C39.1638 27.783 40.1639 28.0056 41.1755 27.9981C41.6459 27.9981 42.1023 27.9575 42.5433 27.8749C42.8303 27.8329 43.1005 27.7629 43.3721 27.6789C44.0382 27.4581 44.668 27.1402 45.2411 26.7353C45.8249 26.3181 46.3989 25.7763 46.9939 25.1253V25.5411C46.9939 26.3321 47.1955 26.9299 47.5805 27.3611C47.9655 27.7769 48.4807 27.9981 49.0785 27.9981C49.6623 27.9981 50.1775 27.7895 50.5625 27.3891C50.9475 26.9719 51.1309 26.3615 51.1309 25.5439V6.66066C51.1323 5.86686 50.9629 5.25506 50.6073 4.84066L50.6059 4.84206ZM46.1819 22.3085C45.7983 23.1135 45.2831 23.7113 44.6419 24.1005C44.0147 24.4911 43.2993 24.6829 42.5461 24.6829H42.5321C41.7621 24.6829 41.0621 24.4743 40.4209 24.0739C39.7657 23.6567 39.2659 23.0463 38.8949 22.2413C38.5253 21.4223 38.3391 20.4353 38.3391 19.2691C38.3391 18.1715 38.5113 17.2013 38.8515 16.3823C39.2071 15.5479 39.6929 14.9095 40.3355 14.4671C40.9627 14.0079 41.6907 13.7993 42.4901 13.7993H42.5461C43.3021 13.7993 44.0007 14.0205 44.6293 14.4503C45.2859 14.8815 45.7983 15.5087 46.1833 16.3263C46.5529 17.1453 46.7545 18.1323 46.7545 19.2691C46.7545 20.4899 46.5529 21.5049 46.1833 22.3085H46.1819ZM20.9931 12.9495V13.4787C21.7771 12.4777 22.6185 11.7567 23.5327 11.2835C24.4595 10.8271 25.5151 10.5891 26.7135 10.5891C27.8699 10.5891 28.9115 10.8411 29.8215 11.3255C30.7055 11.7855 31.42 12.5152 31.8613 13.4087C32.1623 13.9351 32.3485 14.5063 32.4325 15.1181C32.5179 15.7145 32.5599 16.4915 32.5599 17.4365V25.3955C32.5599 26.2551 32.3457 26.9075 31.9467 27.3373C31.5491 27.7811 31.0199 28.0023 30.3787 28.0023C29.7207 28.0023 29.1943 27.7811 28.7799 27.3247C28.3655 26.8781 28.1653 26.2285 28.1653 25.3955V18.2653C28.1653 16.8499 27.9651 15.7677 27.5661 15.0173C27.1671 14.2697 26.3523 13.8931 25.1581 13.8931C24.3713 13.8931 23.6601 14.1283 23.0161 14.5735C22.3593 15.0432 21.862 15.7028 21.5909 16.4635C21.3767 17.1005 21.2773 18.2807 21.2773 20.0475V25.3927C21.2773 26.2663 21.0645 26.9047 20.6515 27.3513C20.2371 27.7811 19.7107 28.0023 19.0527 28.0023C18.4101 28.0023 17.8949 27.7811 17.4833 27.3247C17.0689 26.8781 16.8701 26.2285 16.8701 25.3955V13.0195C16.8701 12.2019 17.0563 11.5915 17.4273 11.1995C17.7829 10.7991 18.2813 10.5891 18.9253 10.5891C19.3103 10.5891 19.6533 10.6731 19.9655 10.8537C20.2791 11.0329 20.5339 11.2975 20.7215 11.6573C20.9063 12.0185 20.9931 12.4511 20.9931 12.9495ZM9.19252 0.661658C12.1605 -0.379943 15.5415 -0.323943 18.0797 1.81246C18.5515 2.24226 19.0919 2.78546 19.3061 3.42246C19.5637 4.23026 18.4087 3.33846 18.2505 3.22786C17.4217 2.70006 16.5957 2.25626 15.6689 1.95106C10.6765 0.453057 5.95292 3.16066 3.01572 7.36906C1.78932 9.22546 0.989918 11.1855 0.336118 13.3359C0.263318 13.5711 0.207318 13.8777 0.0785176 14.0849C-0.0516824 14.3229 0.0225176 13.4479 0.0225176 13.4185C0.120518 12.5295 0.306718 11.6685 0.537718 10.8089C1.89152 6.22666 4.88612 2.40886 9.19392 0.658858L9.19252 0.661658ZM14.9409 8.89506C14.9151 9.81206 14.5326 10.6828 13.8749 11.3223C13.2171 11.9618 12.3359 12.3195 11.4185 12.3195C10.5011 12.3195 9.61994 11.9618 8.96218 11.3223C8.30442 10.6828 7.92197 9.81206 7.89612 8.89506C7.88284 8.42413 7.96413 7.95533 8.13517 7.51636C8.30622 7.0774 8.56355 6.67719 8.89194 6.3394C9.22034 6.00161 9.61314 5.7331 10.0471 5.54975C10.4811 5.3664 10.9474 5.27194 11.4185 5.27194C11.8896 5.27194 12.356 5.3664 12.7899 5.54975C13.2239 5.7331 13.6167 6.00161 13.9451 6.3394C14.2735 6.67719 14.5308 7.0774 14.7019 7.51636C14.8729 7.95533 14.9542 8.42413 14.9409 8.89506V8.89506Z" fill="white"/>
</g>
<defs>
<clipPath id="clip0_599_10701">
<rect width="105" height="28" fill="white"/>
</clipPath>
</defs>
</svg>
