<svg width="40" height="40" viewBox="0 0 40 40" fill="none" xmlns="http://www.w3.org/2000/svg">
<path fill-rule="evenodd" clip-rule="evenodd" d="M20 40C31.0457 40 40 31.0457 40 20C40 8.9543 31.0457 0 20 0C8.9543 0 0 8.9543 0 20C0 31.0457 8.9543 40 20 40ZM28.5186 13.8475C29.3777 13.7459 30.2365 13.5424 31.0003 13.1357C30.4276 14.051 29.7595 14.8644 28.8046 15.373V15.9832C28.8046 22.0849 24.5092 29 16.5865 29C14.1047 29 11.909 28.2882 10 26.9662C10.3817 27.0678 10.6681 27.0678 11.0498 27.0678C13.0545 27.0678 14.9635 26.356 16.3954 25.1356C14.4865 25.1356 12.9592 23.8136 12.3864 21.983C12.5775 22.0846 12.8638 22.0846 13.1502 22.0846C13.5309 22.0846 13.912 21.9832 14.2927 21.8819L14.2958 21.8811C12.2914 21.4744 10.8595 19.6437 10.8595 17.4064V17.3049C11.4323 17.7115 12.1004 17.9151 12.7685 17.9151C11.6233 17.1013 10.8595 15.7794 10.8595 14.1523C10.8595 13.2369 11.0505 12.5252 11.4323 11.8134C13.6276 14.5593 16.7775 16.3896 20.3095 16.5931C20.2141 16.288 20.2141 15.9829 20.2141 15.5762C20.2141 13.0338 22.1231 11 24.5095 11C25.7504 11 26.8956 11.5083 27.6594 12.4236C28.7093 12.2204 29.5684 11.8137 30.4276 11.3051C30.0458 12.4239 29.3777 13.2373 28.5186 13.8475Z" fill="white"/>
</svg>
