<svg width="33" height="32" viewBox="0 0 33 32" fill="none" xmlns="http://www.w3.org/2000/svg">
<path d="M11.2071 9.70715L15.5 5.41419V16C15.5 16.2652 15.6053 16.5196 15.7929 16.7071C15.9804 16.8946 16.2348 17 16.5 17C16.7652 17 17.0196 16.8946 17.2071 16.7071C17.3946 16.5196 17.5 16.2652 17.5 16V5.41419L21.7929 9.70715C21.9804 9.89469 22.2348 10 22.5 10C22.7653 10 23.0196 9.89464 23.2071 9.70709C23.3947 9.51954 23.5 9.26518 23.5 8.99996C23.5 8.73473 23.3946 8.48038 23.2071 8.29285L17.2071 2.29285C17.2042 2.29004 17.2011 2.28766 17.1982 2.28485C17.1776 2.26471 17.1563 2.24511 17.134 2.22674C17.1219 2.21691 17.1092 2.20831 17.0969 2.19909C17.0831 2.18878 17.0696 2.17809 17.0553 2.16845C17.0411 2.15893 17.0262 2.15069 17.0117 2.14196C16.9982 2.13391 16.9851 2.12548 16.9712 2.1181C16.9568 2.11035 16.9418 2.10382 16.9271 2.0968C16.9122 2.08978 16.8976 2.08239 16.8824 2.07605C16.8684 2.07031 16.8542 2.06567 16.84 2.0606C16.8234 2.05456 16.8069 2.04815 16.7898 2.04303C16.7762 2.03888 16.7623 2.03595 16.7485 2.0324C16.7307 2.02782 16.7131 2.02288 16.6948 2.01928C16.6797 2.01628 16.6644 2.01458 16.6492 2.01232C16.6321 2.00975 16.6153 2.00664 16.598 2.00493C16.5727 2.00249 16.5474 2.00164 16.5221 2.00109C16.5147 2.00098 16.5074 2 16.5 2C16.4925 2 16.4853 2.00098 16.4779 2.0011C16.4526 2.00165 16.4272 2.0025 16.402 2.00494C16.3847 2.00665 16.3679 2.00977 16.3508 2.01233C16.3356 2.01459 16.3203 2.0163 16.3052 2.01929C16.2869 2.02289 16.2693 2.02783 16.2515 2.03241C16.2377 2.03595 16.2238 2.03888 16.2102 2.04304C16.1931 2.04816 16.1766 2.05457 16.16 2.06062C16.1458 2.06568 16.1316 2.07032 16.1176 2.07606C16.1024 2.0824 16.0878 2.08979 16.0729 2.09681C16.0582 2.10383 16.0432 2.11036 16.0287 2.11811C16.0149 2.1255 16.0018 2.13392 15.9883 2.14197C15.9737 2.1507 15.9589 2.15894 15.9447 2.16846C15.9303 2.17811 15.9169 2.18879 15.9031 2.1991C15.8907 2.20832 15.878 2.21693 15.866 2.22675C15.844 2.24482 15.8232 2.26404 15.8028 2.28388C15.7996 2.28699 15.7961 2.28967 15.7929 2.29285L9.7929 8.29285C9.60558 8.48043 9.5004 8.73471 9.50049 8.99981C9.50057 9.2649 9.60592 9.51911 9.79336 9.70657C9.9808 9.89403 10.235 9.9994 10.5001 9.9995C10.7652 9.99961 11.0195 9.89446 11.2071 9.70715Z" fill="white"/>
<path d="M28.5 15H19.5V16C19.5 16.7956 19.1839 17.5587 18.6213 18.1213C18.0587 18.6839 17.2956 19 16.5 19C15.7044 19 14.9413 18.6839 14.3787 18.1213C13.8161 17.5587 13.5 16.7956 13.5 16V15H4.5C3.96975 15.0006 3.4614 15.2115 3.08646 15.5865C2.71151 15.9614 2.50061 16.4698 2.5 17V25C2.50061 25.5302 2.71151 26.0386 3.08646 26.4135C3.4614 26.7885 3.96975 26.9994 4.5 27H28.5C29.0302 26.9994 29.5386 26.7885 29.9135 26.4135C30.2885 26.0386 30.4994 25.5302 30.5 25V17C30.4994 16.4698 30.2885 15.9614 29.9135 15.5865C29.5386 15.2115 29.0302 15.0006 28.5 15ZM24.0001 22.5C23.7034 22.5 23.4134 22.412 23.1667 22.2472C22.92 22.0824 22.7278 21.8481 22.6142 21.574C22.5007 21.2999 22.471 20.9983 22.5289 20.7074C22.5868 20.4164 22.7296 20.1491 22.9394 19.9393C23.1492 19.7296 23.4165 19.5867 23.7074 19.5288C23.9984 19.4709 24.3 19.5006 24.5741 19.6142C24.8482 19.7277 25.0824 19.92 25.2473 20.1666C25.4121 20.4133 25.5001 20.7033 25.5001 21C25.5001 21.3978 25.342 21.7794 25.0607 22.0607C24.7794 22.342 24.3979 22.5 24.0001 22.5Z" fill="white"/>
</svg>
