<svg width="355" height="472" viewBox="0 0 355 472" fill="none" xmlns="http://www.w3.org/2000/svg">
<path fill-rule="evenodd" clip-rule="evenodd" d="M198.072 53.7263C244.35 97.542 220.456 175.894 247.67 233.521C274.623 290.599 359.439 321.509 354.235 384.415C349.103 446.444 268.635 468.391 224.601 512.378C178.989 557.942 153.966 629.109 91.8818 646.49C27.4631 664.524 -40.6358 635.67 -98.9961 602.973C-156.674 570.658 -217.682 528.222 -233.7 464.079C-249.095 402.431 -194.112 348.124 -177.984 286.664C-163.631 231.967 -175.584 171.88 -144.608 124.57C-108.568 69.5238 -58.0502 18.3941 6.38276 5.07358C72.5594 -8.60742 149.001 7.26622 198.072 53.7263Z" fill="url(#paint0_linear_599_10633)"/>
<defs>
<linearGradient id="paint0_linear_599_10633" x1="-183.865" y1="517.522" x2="385.269" y2="282.251" gradientUnits="userSpaceOnUse">
<stop stop-color="#919DF4"/>
<stop offset="1" stop-color="#919DF4" stop-opacity="0"/>
</linearGradient>
</defs>
</svg>
