<svg width="519" height="108" viewBox="0 0 519 108" fill="none" xmlns="http://www.w3.org/2000/svg">
<path fill-rule="evenodd" clip-rule="evenodd" d="M378.426 -418.216C419.355 -380.119 398.977 -311.198 423.283 -260.841C447.357 -210.966 522.001 -184.479 517.905 -129.249C513.866 -74.7895 443.431 -54.9336 405.125 -16.0123C365.447 24.304 344.025 86.9295 289.685 102.642C233.301 118.946 173.339 94.1387 121.892 65.8875C71.0465 37.9668 17.2033 1.19092 2.67112 -54.9661C-11.2957 -108.938 36.5381 -156.996 50.2292 -211.038C62.4137 -259.134 51.4781 -311.763 78.3015 -353.502C109.511 -402.066 153.451 -447.302 209.883 -459.47C267.841 -471.968 335.026 -458.611 378.426 -418.216Z" fill="url(#paint0_linear_599_10636)"/>
<defs>
<linearGradient id="paint0_linear_599_10636" x1="89.7186" y1="123.384" x2="396.386" y2="-502.963" gradientUnits="userSpaceOnUse">
<stop stop-color="#919DF4"/>
<stop offset="0.0001" stop-color="#5A6BE1"/>
<stop offset="1" stop-color="#8492FB" stop-opacity="0"/>
</linearGradient>
</defs>
</svg>
