<svg width="410" height="272" viewBox="0 0 410 272" fill="none" xmlns="http://www.w3.org/2000/svg">
<path fill-rule="evenodd" clip-rule="evenodd" d="M47.5215 181.409C90.3561 130.851 173.07 151.164 231.337 119.606C289.047 88.3498 316.274 -1.47642 381.88 0.318643C446.571 2.08868 473.971 84.3707 522.163 127.563C572.082 172.304 647.401 194.201 669.006 257.658C691.424 323.502 665.373 395.856 634.774 458.319C604.534 520.052 563.977 585.824 498.303 606.132C435.185 625.65 375.651 571.682 310.919 558.463C253.311 546.699 191.616 562.554 140.723 533.109C81.5079 498.849 25.5289 449.335 8.00463 383.206C-9.99392 315.288 2.10189 235.018 47.5215 181.409Z" fill="url(#paint0_linear_599_10634)"/>
<defs>
<linearGradient id="paint0_linear_599_10634" x1="550.929" y1="551.328" x2="274.036" y2="-26.0417" gradientUnits="userSpaceOnUse">
<stop stop-color="#919DF4"/>
<stop offset="1" stop-color="#919DF4" stop-opacity="0"/>
</linearGradient>
</defs>
</svg>
