<svg width="251" height="42" viewBox="0 0 251 42" fill="none" xmlns="http://www.w3.org/2000/svg">
<path d="M33.4564 10.6957C33.053 10.2666 32.6327 10.2725 32.1358 10.4583C32.679 11.1696 32.6818 11.1706 33.4564 10.6957ZM50.8536 9.19657C50.7308 9.28896 50.7346 9.436 50.8612 9.52243C50.9868 9.60887 51.5272 9.84531 51.7379 9.89499C51.7379 9.89499 51.7379 9.89498 51.9344 9.91286C51.9891 9.91882 52.0836 9.8473 52.1091 9.79365C52.1374 9.73404 52.1422 9.61681 52.0987 9.58899C51.8153 9.39824 51.8153 9.39825 51.8153 9.39825C51.4828 9.21744 50.9755 9.10418 50.8536 9.19657ZM142.97 2.46183C143.3 2.74397 143.663 2.57211 143.775 2.07836C143.775 2.07836 143.775 2.07835 143.208 1.84986C143.078 1.79819 143.078 1.79819 143.078 1.79819C142.801 1.97305 142.619 2.15682 142.672 2.2065C142.672 2.2065 142.672 2.2065 142.701 2.23133C142.97 2.46182 142.97 2.46183 142.97 2.46183ZM218.273 26.5138C218.602 26.4939 218.712 26.3697 218.516 26.2356C218.321 26.1035 217.603 26.2286 217.336 26.2723C217.071 26.3151 217.944 26.5327 218.273 26.5138ZM222.03 29.8508C222.07 29.8936 221.979 30.0227 221.824 30.138C221.671 30.2522 221.633 30.5999 221.869 30.4996C221.869 30.4996 221.869 30.4996 222.07 30.4181C222.314 30.3198 222.314 30.3198 222.314 30.3198C222.641 30.2363 222.753 30.0356 222.565 29.8727C222.565 29.8727 222.565 29.8727 222.401 29.7366C222.343 29.6879 222.276 29.6094 222.215 29.6114C222.104 29.6134 222.104 29.6134 222.104 29.6134C221.982 29.6581 221.989 29.8081 222.03 29.8508ZM60.9211 37.285C60.6547 37.285 60.5007 37.4231 60.5801 37.591C60.6594 37.7589 61.0666 38.0828 61.332 37.9904C61.5975 37.899 61.1894 37.285 60.9211 37.285ZM153.255 2.10021C153.016 2.10021 153.064 2.31481 153.365 2.57609C153.365 2.57609 153.365 2.57609 153.678 2.67345C153.773 2.70325 153.773 2.70323 153.773 2.70323C154.074 2.37141 153.494 2.10021 153.255 2.10021ZM188.705 2.02869C188.945 2.16976 189.135 2.21247 189.127 2.12207C189.121 2.03265 189.176 1.76938 189.211 1.69586C189.245 1.62135 189.136 1.36206 188.853 1.34715C188.57 1.33225 188.465 1.88761 188.705 2.02869ZM220.124 6.0741C219.825 5.83268 219.81 5.77307 220.089 5.94096C220.369 6.10986 221.255 6.35821 221.33 6.30357C221.406 6.24992 221.291 5.94098 220.868 5.77705C220.868 5.77705 220.868 5.77704 220.64 5.86745C220.124 6.07409 220.124 6.0741 220.124 6.0741ZM182.625 1.60546C182.761 1.40379 182.674 1.32531 182.432 1.4326C182.19 1.5389 181.586 1.45742 181.482 1.53889C181.482 1.53889 181.482 1.53889 181.483 1.6124C181.483 1.76639 181.353 1.97901 181.672 2.05153C181.843 2.09028 181.843 2.09027 181.843 2.09027C182.039 2.17273 182.49 1.80813 182.625 1.60546ZM215.605 26.1382C215.677 25.9992 215.478 25.8541 215.162 25.8164C215.162 25.8164 215.162 25.8163 214.973 25.9028C214.76 26.0001 214.76 26.0001 214.76 26.0001C214.613 26.2316 214.573 26.5426 214.671 26.6906C214.671 26.6906 214.671 26.6906 214.79 26.7045C214.956 26.7224 214.956 26.7224 214.956 26.7224C215.146 26.631 215.533 26.2773 215.605 26.1382ZM25.0639 36.9154C25.1792 36.6929 25.2405 36.3342 25.199 36.1196C25.199 36.1196 25.199 36.1197 24.8542 36.1991C24.7389 36.2269 24.5963 36.4982 24.5292 36.2498C24.4508 35.9667 24.3611 35.8474 24.0701 36.0203C24.0219 36.0481 24.0219 36.0481 24.0219 36.0481C24.1296 36.2667 24.3818 36.5727 24.583 36.7277C24.583 36.7277 24.583 36.7277 24.7994 36.8121C25.0639 36.9154 25.0639 36.9154 25.0639 36.9154ZM111.752 2.80357C111.161 2.75887 110.859 2.93869 111.08 3.20395C111.08 3.20395 111.08 3.20395 111.426 3.13441C111.762 3.06685 112.086 2.95359 112.402 2.83537C112.443 2.82047 112.427 2.6476 112.395 2.55919C112.38 2.51944 112.224 2.46978 112.195 2.49064C111.752 2.80359 111.752 2.80357 111.752 2.80357ZM78.2087 4.05735C78.2267 4.19047 78.3854 4.14378 78.5611 3.95402C78.7387 3.76328 78.7953 3.17118 78.5573 3.21986C78.3202 3.26953 77.7515 3.45629 77.7383 3.50696C77.725 3.55762 77.76 3.68976 77.8422 3.67982C77.9244 3.66989 78.1926 3.92422 78.2087 4.05735ZM149.789 2.32573C150.06 2.4678 150.084 2.46282 149.842 2.31281C149.599 2.16378 149.052 1.69389 148.975 1.85582C148.898 2.01677 149.012 2.52442 149.38 2.66947C149.38 2.66947 149.38 2.66948 149.461 2.60192C149.789 2.32574 149.789 2.32573 149.789 2.32573ZM59.7988 4.51236C59.7761 4.65741 59.9348 4.70408 60.1502 4.61467C60.3656 4.52526 60.9097 4.20438 60.99 4.07721C60.99 4.07721 60.99 4.07722 60.8446 3.91628C60.7397 3.79707 60.8247 3.52782 60.5111 3.58445C60.2135 3.6381 60.2135 3.6381 60.2135 3.6381C60.0236 3.8676 59.8205 4.36732 59.7988 4.51236ZM28.6253 8.8717C28.5885 8.72666 28.4345 8.60247 28.2824 8.59552C28.1303 8.58757 27.8176 8.70679 27.5947 8.82302C27.3727 8.93926 27.0761 9.52045 27.0855 9.60192C27.0855 9.60192 27.0855 9.60191 27.1346 9.64264C27.1828 9.68436 27.1828 9.68436 27.1828 9.68436C27.2754 9.69131 27.7279 9.45984 28.187 9.17173C28.187 9.17173 28.187 9.17173 28.5922 8.89455C28.6253 8.8717 28.6253 8.8717 28.6253 8.8717ZM62.0452 3.84277C61.741 3.98185 61.8818 4.19445 62.356 4.31367C62.356 4.31367 62.356 4.31366 62.6848 4.42493C63.0116 4.53421 63.1392 4.31862 63.2932 4.17258C63.3555 4.11297 63.3517 3.97787 63.33 3.88548C63.3149 3.81494 62.391 3.68777 62.2909 3.73248C62.0452 3.84275 62.0452 3.84277 62.0452 3.84277ZM246.669 32.6276C246.739 32.3862 246.529 32.2809 246.2 32.3931C246.2 32.3931 246.2 32.3931 245.937 32.5293C245.727 32.6375 245.538 32.7875 245.875 32.9932C245.965 33.0488 245.965 33.0488 245.965 33.0488C246.001 33.2694 246.598 32.87 246.669 32.6276ZM202.767 1.70581C203.111 1.62732 203.349 1.44252 203.295 1.29449C203.242 1.14647 202.658 0.924919 202.504 0.989494C202.35 1.05407 202.422 1.78429 202.767 1.70581ZM208.051 1.675C208.212 1.80912 208.5 1.73659 208.692 1.51405C208.692 1.51405 208.692 1.51406 208.745 1.33226C208.784 1.20212 208.701 1.02029 208.612 0.892136C208.496 0.726227 208.322 0.654709 208.092 0.807705C207.919 0.921955 207.919 0.921944 207.919 0.921944C207.637 1.04017 207.891 1.53989 208.051 1.675ZM157.449 39.9982C157.305 39.9306 157.186 39.9932 157.186 40.1392C157.186 40.2843 157.118 40.6399 157.036 40.631C156.954 40.6221 156.672 40.6678 156.677 40.7621C156.68 40.8575 156.714 41.1158 156.729 41.1297C156.745 41.1436 157.323 41.0781 157.978 40.9519C157.978 40.9519 157.978 40.9519 157.942 40.7045C157.92 40.5426 157.92 40.5426 157.92 40.5426C157.926 40.3687 157.594 40.0667 157.449 39.9982ZM219.514 27.5668C219.4 27.6642 219.51 27.7089 219.759 27.6652C220.008 27.6215 220.673 28.0566 220.947 28.0477C221.221 28.0378 221.305 27.4476 221.005 27.4198C220.705 27.391 219.628 27.4695 219.514 27.5668ZM38.7466 5.75716C39.0688 5.84161 39.3304 5.8595 39.3248 5.79692C39.3191 5.73433 39.389 5.44621 39.4514 5.31507C39.5137 5.18393 39.3143 5.05479 39.1197 5.20183C39.1197 5.20183 39.1197 5.20182 38.7891 5.00015C38.4868 4.81834 38.3895 5.21672 38.1864 5.33593C37.9748 5.46012 38.0145 5.62405 38.1921 5.77506C38.3338 5.89627 38.4207 6.02642 38.6569 5.8307C38.7466 5.75719 38.7466 5.75716 38.7466 5.75716ZM243.768 31.1006C243.932 31.2 244.107 31.1543 244.156 30.9993C244.206 30.8443 243.873 30.3327 243.8 30.1926C243.8 30.1926 243.8 30.1926 243.586 30.3774C243.187 30.7211 243.187 30.7211 243.187 30.7211C242.838 30.6416 242.467 30.5801 242.362 30.584C242.362 30.584 242.362 30.584 242.324 30.6277C242.289 30.6685 242.301 30.7946 242.346 30.8225C242.568 30.9615 242.809 31.0798 243.039 31.2099C243.106 31.2467 243.106 31.2467 243.106 31.2467C243.168 31.3003 243.603 31.0013 243.768 31.1006ZM225.157 5.72837C225.146 5.53365 225.082 5.47802 225.013 5.60518C224.945 5.73135 224.645 5.90718 224.457 5.78996C224.268 5.67273 223.626 5.61214 223.695 5.6777C223.764 5.74327 223.808 5.9211 223.707 5.99064C223.605 6.05919 223.543 6.2708 224.034 6.14165C224.034 6.14165 224.034 6.14166 224.249 6.22809C224.555 6.35128 224.555 6.35128 224.555 6.35128C224.904 6.33836 225.168 5.9221 225.157 5.72837ZM44.2144 5.34687C44.3703 5.04982 44.1152 4.81835 43.6486 4.83226C43.6486 4.83226 43.6485 4.83225 43.3585 4.52726C43.3453 4.51335 43.3453 4.51336 43.3453 4.51336C43.1668 4.61568 42.9873 4.81139 42.9467 4.94749C42.9051 5.0836 43.4936 5.36178 43.6656 5.40152C43.6656 5.40152 43.6656 5.4015 43.6656 5.43826C43.6665 5.77703 43.7912 5.84856 44.0321 5.56245C44.2144 5.34686 44.2144 5.34687 44.2144 5.34687ZM35.2362 10.3102C35.2258 10.4781 35.0784 10.5407 34.9084 10.4484C34.7384 10.356 34.8536 10.7841 35.2664 10.7663C35.2664 10.7663 35.2664 10.7663 35.6311 10.806C36.3273 10.8815 36.3273 10.8815 36.3273 10.8815C36.5739 10.5328 36.5965 10.2874 36.3774 10.3371C36.1582 10.3877 35.5498 10.2516 35.5158 10.1364C35.4818 10.0221 35.3779 9.74398 35.3543 9.74696C35.3307 9.75093 35.2466 10.1414 35.2362 10.3102ZM243.526 35.4868C243.645 35.5146 243.902 35.301 244.096 35.0119C244.291 34.7218 243.683 34.0284 243.779 33.9708C243.779 33.9708 243.779 33.9708 243.774 33.9241C243.75 33.6936 243.75 33.6936 243.75 33.6936C243.461 33.6121 243.183 33.6062 243.132 33.6817C243.081 33.7572 243.264 34.09 243.334 34.2251C243.404 34.3602 243.292 34.7516 243.411 34.9066C243.531 35.0616 243.406 35.458 243.526 35.4868ZM240.393 11.4378C240.466 11.3653 240.394 10.9759 240.232 10.5715C240.232 10.5715 240.232 10.5715 239.556 10.5626C238.919 10.5546 238.919 10.5546 238.919 10.5546C238.624 10.9471 238.56 11.4498 238.781 11.6703C238.781 11.6703 238.781 11.6703 238.887 11.6465C239.171 11.5849 239.171 11.5849 239.171 11.5849C239.454 11.416 239.752 11.3365 239.834 11.407C239.916 11.4766 240.319 11.5104 240.393 11.4378ZM235.866 8.56869C236.063 8.28059 235.929 7.9309 235.57 7.79281C235.57 7.79281 235.57 7.79281 235.267 7.74214C234.819 7.66564 234.819 7.66564 234.819 7.66564C234.314 7.63186 234.05 7.71729 234.229 7.85439C234.41 7.99249 235.67 8.85779 235.866 8.56869ZM56.3772 3.79705C56.4244 3.67683 56.4934 3.53876 56.5321 3.49107C56.5708 3.44339 56.9487 3.49107 57.3256 3.58644C57.3256 3.58644 57.3256 3.58645 57.7668 3.21986C57.9614 3.05891 57.9614 3.0589 57.9614 3.0589C58.156 3.13441 58.5272 3.19601 58.788 3.19502C59.0487 3.19502 59.9462 2.7271 59.9915 2.75094C59.9915 2.75094 59.9915 2.75092 59.9962 2.77774C60.0293 2.94862 60.0293 2.94864 60.0293 2.94864C60.0548 3.1374 60.3439 3.17812 60.6698 3.04003C60.9957 2.90095 62.2569 3.13939 62.6621 3.17217C63.0674 3.20396 64.2114 2.74001 64.4504 2.76782C64.6894 2.79564 65.3091 3.04797 65.4999 3.07976C65.6917 3.11155 66.2169 2.8314 66.352 2.7857C66.489 2.74099 66.8196 2.74894 66.8243 2.53833C66.8291 2.32671 67.5745 2.68535 67.8012 2.67939C67.8012 2.67939 67.8012 2.6794 67.9533 2.58999C68.3396 2.36248 68.3925 2.49064 68.5125 2.81352C68.6032 3.05692 68.6032 3.05692 68.6032 3.05692C68.8469 2.75589 69.1728 2.58899 69.3268 2.68635C69.4818 2.78371 70.1808 2.81849 70.519 2.741C70.519 2.741 70.519 2.74099 70.7637 2.58501C70.9876 2.44196 70.9876 2.44196 70.9876 2.44196C71.219 2.46978 71.5402 2.5274 71.7008 2.56913C71.7008 2.56913 71.7008 2.56914 71.7934 2.65159C71.9568 2.79565 72.0617 2.98737 72.2251 3.13142C72.261 3.16322 72.261 3.16322 72.261 3.16322C72.4207 3.09865 72.534 2.94068 72.5132 2.81153C72.4915 2.68238 72.9723 2.46381 73.3304 2.38831C73.3304 2.38831 73.3304 2.38831 73.6251 2.61482C73.6979 2.67046 73.6979 2.67046 73.6979 2.67046C74.0294 2.84233 74.4678 2.85622 74.6709 2.70224C74.6709 2.70224 74.6709 2.70226 74.8749 2.59993C74.994 2.54032 74.9939 2.54031 74.9939 2.54031C75.1649 2.53535 75.2963 2.64263 75.284 2.77973C75.284 2.77973 75.284 2.77973 75.2726 2.90491C75.2651 2.98141 75.2651 2.98141 75.2651 2.98141C75.2547 3.06685 75.3709 3.13045 75.523 3.12349C75.523 3.12349 75.523 3.12348 75.5834 3.06189C75.7053 2.93373 75.7544 2.7559 75.8687 2.62079C76.0114 2.44991 76.0114 2.44992 76.0114 2.44992C76.2211 2.52244 76.4979 2.55918 76.6254 2.53236C76.7548 2.50454 77.4095 2.56317 77.879 2.94665C77.879 2.94665 77.879 2.94664 78.5053 2.56018C78.596 2.50355 78.8823 2.52242 78.9191 2.57905C79.1798 2.99134 79.1798 2.99135 79.1798 2.99135C79.5331 2.81849 79.9072 2.58503 80.0112 2.47276C80.116 2.3605 80.5156 2.1459 80.6016 2.31579C80.6876 2.48666 81.1127 2.84035 81.3177 2.65159C81.3177 2.65159 81.3177 2.65159 81.5283 2.60192C81.893 2.5145 81.893 2.51448 81.893 2.51448C82.3256 2.49362 82.7309 2.47077 82.7951 2.46481C82.8584 2.45686 83.24 2.35354 83.5197 2.29294C83.8002 2.23234 84.8318 2.62178 84.9358 2.49064C84.9358 2.49064 84.9358 2.49063 85.0671 2.41016C85.1852 2.33863 85.1852 2.33863 85.1852 2.33863C85.3571 2.30784 85.4308 2.37938 85.3486 2.4966C85.3486 2.4966 85.3486 2.4966 85.3675 2.58999C85.3864 2.67741 85.5215 2.75591 85.6207 2.82247C85.853 2.98043 85.853 2.98042 85.853 2.98042C85.8889 2.79066 85.9664 2.54528 86.0259 2.435C86.0864 2.32473 86.5965 2.13697 87.0575 2.19857C87.0575 2.19857 87.0575 2.19857 87.4458 2.27407C87.5279 2.29096 87.528 2.29095 87.528 2.29095C87.6092 2.39725 87.6442 2.48171 87.6064 2.47774C87.5695 2.47376 87.4382 2.71815 87.3286 2.99931C87.2209 3.28146 86.2233 3.18111 86.1468 3.22185C86.1468 3.22185 86.1469 3.22183 86.1242 3.27746C86.0987 3.33806 86.0987 3.33807 86.0987 3.33807C86.1195 3.41954 86.5408 3.70863 87.0358 3.97985C87.0358 3.97985 87.0358 3.97985 87.6111 3.7285C87.8539 3.6222 87.8539 3.62219 87.8539 3.62219C88.159 3.54768 88.1581 3.40961 87.8529 3.31523C87.5478 3.21985 87.9153 2.38135 88.2091 2.25518C88.2091 2.25518 88.2091 2.25519 88.5662 2.24725C89.2199 2.23433 89.8906 2.40023 90.5424 2.11809C90.7191 2.04258 91.1026 2.14987 91.2774 2.283C91.454 2.41711 91.454 2.41713 91.454 2.41713C91.5343 2.69828 91.6798 2.79463 91.7752 2.63071C91.8725 2.46778 92.3562 2.0714 92.6415 2.1032C92.9287 2.13598 93.8337 2.0396 94.051 1.74156C94.051 1.74156 94.051 1.74155 94.2919 1.93329C94.3542 1.98396 94.3542 1.98396 94.3542 1.98396C94.4156 2.04158 94.5885 2.25319 94.7368 2.45387C94.7368 2.45387 94.7368 2.45389 95.0533 2.27407C95.1421 2.2234 95.1421 2.2234 95.1421 2.2234C95.3367 2.24625 95.519 2.36446 95.5483 2.48567C95.5757 2.60588 95.7438 2.92876 95.809 2.73304C95.809 2.73304 95.809 2.73304 95.8279 2.63469C95.8421 2.56415 95.8033 2.47773 95.8355 2.41812C95.9573 2.19856 96.1198 2.23531 96.3267 2.35552C96.8274 2.64561 96.4438 2.07935 96.6857 2.07438C96.8349 2.0714 96.8349 2.0714 96.8349 2.0714C97.0059 2.00682 97.3819 2.02967 97.671 2.12107C97.671 2.12107 97.671 2.12108 97.926 1.90649C97.9978 1.84688 98.2208 1.80613 98.2557 1.8409C98.8169 2.41016 98.8169 2.41016 98.8169 2.41016C99.1711 1.96012 99.6642 1.76342 99.9136 1.97205C100.162 2.18068 101.258 1.95119 101.448 2.07537C101.638 2.20055 102.497 1.8568 102.922 1.89058C102.922 1.89058 102.922 1.89059 103.282 1.69884C103.335 1.67004 103.335 1.67003 103.335 1.67003C103.452 1.7207 103.855 1.83495 104.231 1.92536C104.231 1.92536 104.231 1.92536 104.835 1.82303C105.265 1.75051 105.265 1.75051 105.265 1.75051C105.33 2.01775 105.543 2.12504 105.739 1.98893C105.933 1.85283 106.682 2.03562 106.788 2.03463C106.894 2.03363 107.289 1.8578 107.594 1.74255C107.594 1.74255 107.594 1.74256 107.932 1.82005C108.318 1.90747 108.317 1.90746 108.317 1.90746C108.761 1.86375 109.173 1.88164 109.237 1.94522C109.299 2.0098 109.494 2.01774 109.618 1.91144C109.743 1.80514 110.311 1.48625 110.409 1.60646C110.507 1.72667 110.845 2.01278 111.028 2.06344C111.211 2.11411 111.991 2.01875 112.359 1.87469C112.726 1.73064 113.714 1.8737 113.914 1.87569C114.113 1.87767 114.719 1.70382 114.881 1.77734C115.045 1.85085 115.558 2.03962 115.654 2.02968C115.654 2.02968 115.654 2.02966 115.705 1.98893C115.999 1.75249 115.999 1.7525 115.999 1.7525C116.392 1.78727 116.804 1.81308 116.916 1.8101C117.026 1.80812 117.515 1.70382 117.795 1.676C118.078 1.64818 118.713 1.72169 118.751 1.34616C118.751 1.34616 118.752 1.34617 119.306 1.67898C119.403 1.73759 119.403 1.73758 119.403 1.73758C119.516 1.78229 119.82 1.81111 120.081 1.80217C120.341 1.79323 121.218 1.88263 121.483 1.74355C121.748 1.60247 122.643 1.44054 122.822 1.44153C122.822 1.44153 122.822 1.44152 122.925 1.51107C123.153 1.66307 123.309 1.86872 123.67 1.83892C123.979 1.81408 123.979 1.81408 123.979 1.81408C124.131 1.62532 124.353 1.44154 124.47 1.40578C124.47 1.40578 124.47 1.40577 124.587 1.39384C124.943 1.35808 124.943 1.35809 124.943 1.35809C125.318 1.26173 125.863 1.1117 126.155 1.02428C126.155 1.02428 126.155 1.02428 126.365 1.3561C126.572 1.68792 126.948 1.71474 127.311 1.47034L129.041 1.2617C129.546 1.30641 129.546 1.30643 129.546 1.30643C130.102 1.35312 130.714 1.37099 130.907 1.34616C131.1 1.32033 131.557 1.62434 131.585 1.47432C131.612 1.32431 131.818 1.19714 131.995 1.4465C132.171 1.69586 133.357 1.41471 133.776 1.42862C134.195 1.44353 135.356 1.19019 135.462 1.15244C135.462 1.15244 135.462 1.15244 135.498 1.17827C136.182 1.66308 136.182 1.66307 136.182 1.66307C137.055 1.57862 137.839 1.53591 137.926 1.5677C137.926 1.5677 137.926 1.56771 137.944 1.55082C138.187 1.31139 138.394 1.16733 138.824 1.36503C139.027 1.45742 139.027 1.45744 139.027 1.45744C139.388 1.33127 139.979 1.18423 140.34 1.12859C140.34 1.12859 140.34 1.12859 140.66 1.12163C141.108 1.11071 141.108 1.11072 141.108 1.11072C141.588 1.14748 142.058 1.24383 142.15 1.32331C142.243 1.40279 142.534 1.55777 142.573 1.47631C142.612 1.39484 142.904 1.17527 143.149 1.13852C143.394 1.10275 144.205 1.07394 144.376 1.17031C144.376 1.17031 144.376 1.17031 144.371 1.26966C144.354 1.70281 144.354 1.70282 144.354 1.70282C144.682 1.64024 145.231 1.50512 145.574 1.40279C145.574 1.40279 145.574 1.40279 145.92 1.59652C146.069 1.67997 146.421 1.68593 146.531 1.59552C146.818 1.35709 147.142 1.42366 147.463 1.38392C147.773 1.34716 147.773 1.34715 147.773 1.34715C148.105 1.25575 148.508 1.14249 148.668 1.09381C148.828 1.04513 149.311 1.33026 149.57 1.28952C149.829 1.24879 150.628 1.17926 150.768 1.17827C150.907 1.17628 151.243 1.01336 151.326 1.0829C151.408 1.15343 152.05 1.57069 152.569 1.85483C152.569 1.85483 152.569 1.85481 152.624 1.04514C152.625 1.02924 152.918 0.982548 153.039 1.02428C153.758 1.2786 153.758 1.27861 153.758 1.27861C154.095 1.17429 154.96 1.05409 155.68 1.00938C155.68 1.00938 155.68 1.00938 156.336 1.00938C156.391 1.00938 156.391 1.00938 156.391 1.00938C156.47 1.24881 157.15 1.31637 157.903 1.1594C157.903 1.1594 157.903 1.15939 158.608 1.19614C158.784 1.20509 158.755 1.49121 158.542 1.60546C158.449 1.65713 158.449 1.65713 158.449 1.65713C158.284 1.67998 158.265 1.7485 158.408 1.80811C158.551 1.86971 158.955 1.88661 158.955 1.69984C158.955 1.51207 159.175 0.911015 159.445 0.869289C159.714 0.82756 160.659 1.10674 160.967 1.05508C160.967 1.05508 160.967 1.05508 161.256 1.05607C161.578 1.05806 161.935 1.06798 162.211 1.18719C162.688 1.39185 162.688 1.39185 162.688 1.39185C163.136 1.22992 163.675 1.01336 163.884 0.909042C164.091 0.805721 164.425 1.32033 164.463 1.3253C164.5 1.33027 164.708 1.21801 164.886 1.10973C164.886 1.10973 164.886 1.10971 165.096 1.26469C165.416 1.50014 165.604 1.48127 165.639 1.06599C165.648 0.957706 165.648 0.957722 165.648 0.957722C165.842 0.842476 166.098 0.892139 166.217 1.06798C166.336 1.24383 167.058 1.13058 167.448 1.10674C167.839 1.0829 168.992 1.00541 169.16 1.02925C169.16 1.02925 169.16 1.02925 169.236 0.836521C169.254 0.787838 169.581 0.75008 169.639 0.804722C169.778 0.938839 169.708 1.30841 170.074 1.15045C170.22 1.08885 170.219 1.08884 170.219 1.08884C170.269 0.790798 170.664 0.701389 171.1 0.89114C171.1 0.89114 171.1 0.89114 171.504 1.065C171.595 1.10374 172.588 1.00341 172.661 0.942802C172.935 0.718281 173.201 0.486809 173.297 1.04911C173.303 1.08389 173.303 1.08389 173.303 1.08389C173.387 1.11072 173.606 1.16336 173.79 1.20211C173.975 1.23986 174.524 1.3253 174.589 1.25377C174.653 1.18224 174.849 0.944798 174.881 0.900093C174.912 0.854393 175.203 0.691475 175.457 0.639812C175.712 0.587162 176.422 0.804718 176.455 0.750076C176.489 0.695435 176.894 0.647758 177.029 0.762009C177.163 0.876259 177.706 1.17628 177.832 1.08389C177.958 0.991501 178.359 0.814644 178.451 0.889153C178.544 0.963661 178.867 1.10674 178.889 0.984547C178.912 0.86235 179.125 0.718285 179.317 0.921944C179.317 0.921944 179.317 0.921955 179.497 0.93388C179.864 0.956726 179.864 0.956726 179.864 0.956726C179.983 1.19814 180.192 1.26271 180.327 1.10077C180.461 0.938839 180.879 0.540455 180.915 0.625893C180.951 0.710339 181.162 0.869297 181.31 0.803726C181.458 0.738159 181.916 0.611 181.952 0.686504C181.952 0.686504 181.952 0.686489 181.982 0.770935C182.069 1.02129 182.385 1.02626 182.422 0.87923C182.545 0.380508 182.862 0.401375 183.222 0.609013C183.507 0.773926 183.507 0.773918 183.507 0.773918C183.784 0.698414 184.287 0.549385 184.624 0.443085C184.624 0.443085 184.624 0.443096 184.884 0.70438C185.17 0.992489 185.477 1.06799 185.854 0.824585C185.886 0.803722 186.021 0.855389 186.069 0.903076C186.377 1.21006 186.377 1.21007 186.377 1.21007C186.492 1.08886 186.672 0.880219 186.779 0.747093C186.779 0.747093 186.779 0.747093 186.873 0.748089C187.284 0.751068 187.284 0.751072 187.284 0.751072C187.73 0.808693 188.153 0.85041 188.225 0.843456C188.297 0.837494 188.615 0.736168 188.798 0.701397C188.98 0.66563 189.671 1.06104 189.901 0.935867C190.131 0.810688 190.802 0.665642 190.896 0.884205C190.99 1.10376 191.884 0.710339 192.271 0.677555C192.658 0.644772 193.686 0.907051 193.712 0.779884C193.735 0.652721 193.881 0.327866 193.96 0.44112C193.96 0.44112 193.96 0.441109 193.996 0.505688C194.03 0.566288 194.03 0.566273 194.03 0.566273C194.058 0.63681 194.339 0.71629 194.657 0.741127C194.975 0.766956 195.655 1.05607 195.494 1.18125C195.333 1.30643 193.188 1.35114 192.743 1.4336C192.3 1.51606 192.334 1.77036 192.611 1.68393C192.611 1.68393 192.611 1.68393 192.893 1.78527C192.922 1.7952 192.922 1.79521 192.922 1.79521C193.002 1.71077 193.276 1.53988 193.53 1.41669C193.785 1.2935 194.142 1.99093 194.248 2.02172C194.355 2.05252 194.494 1.78427 194.482 1.66208C194.482 1.66208 194.482 1.66208 194.514 1.56173C194.639 1.16633 194.612 1.24582 194.323 1.15244C193.97 1.03819 193.97 1.03817 193.97 1.03817C193.642 1.1246 193.324 1.22992 193.265 1.27165C193.265 1.27165 193.265 1.27166 193.203 1.30544C192.869 1.48625 192.869 1.48623 192.869 1.48623C193.245 1.37397 193.848 1.45544 194.21 1.66605C194.571 1.87766 195.372 1.92237 195.589 1.86773C195.805 1.8121 196.586 1.96012 196.784 1.89257C196.981 1.82501 196.966 1.39186 196.904 1.29649C196.84 1.20211 196.536 0.953743 196.375 0.953743C196.213 0.953743 195.975 0.870281 196.205 0.768948C196.433 0.666618 197.054 0.309978 197.095 0.237453C197.134 0.164928 197.598 0.198692 197.665 0.24638C197.733 0.295059 198.036 0.622921 198.175 0.785851C198.316 0.949776 199.103 1.29947 199.167 1.37299C199.233 1.4465 199.331 1.12163 199.301 0.996456C199.301 0.996456 199.301 0.996471 199.22 0.962692C198.94 0.842484 198.94 0.842461 198.94 0.842461C198.632 0.749077 198.45 0.546406 198.538 0.392418C198.538 0.392418 198.538 0.392433 198.493 0.335808C198.38 0.193741 198.325 0.0248375 198.564 0.0983543C198.954 0.219555 198.954 0.219555 198.954 0.219555C199.385 0.27618 199.956 0.381504 200.223 0.457008C200.492 0.531517 201.6 0.254326 201.757 0.196705C201.914 0.140079 202.262 0.0774918 202.48 0C202.48 0 202.48 3.8147e-06 202.687 0.0774956C202.722 0.0904083 202.792 0.063591 202.81 0.0814705C202.951 0.222546 202.951 0.222538 202.951 0.222538C203.098 0.384472 203.31 0.428185 203.422 0.319897C203.535 0.211605 203.95 0.222534 204.148 0.317905C204.345 0.412285 205.09 0.219559 205.385 0.374542C205.385 0.374542 205.385 0.374557 205.634 0.539474C205.664 0.560337 205.534 0.731213 205.517 0.837513C205.5 0.93388 205.5 0.93388 205.5 0.93388C205.526 1.04614 205.626 0.975594 205.722 0.775906C205.819 0.577213 206.449 0.406334 206.421 0.349705C206.392 0.293076 206.479 0.114258 206.691 0.106308C206.901 0.098362 207.765 0.379513 208.119 0.503696C208.474 0.626888 209.503 0.348724 209.577 0.365616C209.65 0.383499 209.818 0.485809 209.782 0.549393C209.745 0.61198 209.506 0.791794 209.382 0.867298C209.257 0.942802 209.575 1.63227 210.114 1.71275C210.114 1.71275 210.114 1.71276 210.328 1.27861C210.498 0.933876 210.498 0.93388 210.498 0.93388C210.184 0.484829 210.221 0.0715446 210.579 0.0149155C210.579 0.0149155 210.579 0.0148964 210.685 0.0943756C210.899 0.255318 210.958 0.562317 211.33 0.585167C211.337 0.585167 211.34 0.632854 211.343 0.658684C211.412 1.15542 211.415 1.1405 211.977 1.21601C212.262 1.25376 212.262 1.25377 212.262 1.25377C212.636 1.371 212.94 1.28159 212.94 1.05707C212.94 0.831551 213.072 0.293072 213.234 0.269226C213.234 0.269226 213.234 0.269238 213.275 0.303013C213.487 0.478859 213.487 0.478859 213.487 0.478859C213.704 0.690468 213.702 0.89613 213.483 0.936863C213.265 0.978588 213.321 1.52896 213.491 1.55281C213.661 1.57665 214.132 1.21999 214.208 1.29649C214.284 1.37298 214.551 1.55777 214.637 1.54187C214.637 1.54187 214.637 1.54187 214.685 1.51405C214.754 1.47232 214.754 1.47233 214.754 1.47233C214.816 1.41173 214.963 1.29747 215.079 1.218C215.196 1.13852 215.685 1.54187 215.782 1.41371C215.878 1.28456 216.236 1.06103 216.41 1.1405C216.584 1.21899 217.156 1.34019 217.274 1.28654C217.393 1.23289 217.694 0.996468 217.73 1.13456C217.767 1.27266 217.977 1.60844 218.123 1.59552C218.123 1.59552 218.123 1.59552 218.221 1.54982C218.844 1.2498 218.844 1.24979 218.844 1.24979C219.417 1.53294 219.958 1.80812 220.049 1.85978C220.139 1.91243 220.405 2.01973 220.434 1.98595C220.463 1.95217 220.526 1.73262 220.57 1.57466C220.613 1.41769 221.158 1.52499 221.305 1.58162C221.45 1.63825 221.842 1.60644 221.856 1.70877C221.869 1.81209 222.391 1.65613 222.559 1.52698C222.726 1.39783 223.452 1.30443 223.552 1.21502C223.552 1.21502 223.552 1.21503 223.654 1.13655C223.714 1.08986 223.844 1.0213 223.857 1.03223C224.462 1.57367 224.462 1.57367 224.462 1.57367C224.527 1.1127 224.825 0.799755 225.126 0.878239C225.426 0.956722 225.855 1.64719 225.888 1.54982C225.92 1.45147 226.025 1.21999 226.073 1.17926C226.073 1.17926 226.073 1.17926 226.073 1.18026C226.287 1.35411 226.524 1.51604 226.693 1.7197C226.743 1.7813 226.584 1.95515 226.556 2.08331C226.533 2.20352 226.533 2.20354 226.533 2.20354C226.546 2.34262 226.683 2.46778 226.834 2.48269C226.834 2.48269 226.834 2.48268 226.897 2.43003C227.281 2.11212 227.451 2.21645 227.54 2.6198C227.545 2.64463 227.545 2.64463 227.545 2.64463C227.77 2.63271 227.962 2.53237 227.969 2.4221C227.977 2.31182 227.981 2.07338 227.845 2.04457C227.709 2.01576 227.922 1.65512 228.11 1.61041C228.297 1.56571 228.666 2.07637 228.725 2.37043C228.725 2.37043 228.725 2.37043 228.696 2.63568C228.685 2.74 228.461 2.91187 228.343 2.9069C227.827 2.88604 227.827 2.88604 227.827 2.88604C227.264 2.80358 226.82 2.87114 226.839 3.03506C226.858 3.19998 227.7 3.28542 227.818 3.45828C227.936 3.63115 227.968 3.95799 228 4.07522C228.032 4.19344 227.856 4.61071 227.701 4.79847C227.701 4.79847 227.701 4.79848 227.537 4.95346C227.336 5.14122 227.118 5.31607 226.905 5.4949C226.886 5.51179 226.886 5.51178 226.886 5.51178C226.847 5.51575 226.825 5.33892 226.836 5.11936C226.846 4.89881 226.459 4.32161 226.29 4.43487C226.12 4.54813 225.688 4.92365 225.794 5.04485C225.794 5.04485 225.794 5.04486 225.874 5.10646C225.977 5.18693 225.977 5.18691 225.977 5.18691C226.105 5.26142 226.149 5.36674 226.075 5.42039C226.001 5.47403 225.877 5.68963 225.966 5.77904C226.054 5.86845 227.76 6.09893 227.639 6.14363C227.518 6.18834 227.415 6.29563 227.669 6.2847C227.923 6.27477 228.135 6.80132 228.215 6.79138C228.295 6.78045 228.483 6.70595 228.456 6.65032C228.429 6.59269 228.486 6.47645 228.647 6.51718C228.647 6.51718 228.647 6.51717 228.792 6.55293C229.27 6.80726 229.494 7.02982 229.289 7.04771C229.084 7.06559 228.499 7.23347 228.5 7.37653C228.501 7.52058 228.728 7.82459 228.874 8.0054C229.02 8.18621 229.792 8.27662 229.846 8.22396C229.9 8.17131 230.258 8.05408 230.466 8.13356C230.676 8.21304 231.149 8.26071 231.009 8.04414C230.869 7.82855 231.544 7.05266 231.817 6.68806C231.817 6.68806 231.817 6.68805 232.122 6.67911C232.566 6.6652 232.566 6.66521 232.566 6.66521C232.693 6.40293 232.815 6.28669 232.836 6.40889C232.856 6.53108 233.01 6.88576 233.105 6.76157C233.199 6.63739 233.604 6.46653 233.816 6.62548C234.028 6.78444 234.782 7.14902 235.018 7.08047C235.253 7.01192 235.911 6.5758 236.401 6.71488C236.401 6.71488 236.401 6.71487 236.846 6.82912C236.857 6.8321 236.897 6.70494 236.949 6.65725C237.042 6.57082 237.163 6.42577 237.257 6.43472C237.58 6.46353 237.58 6.46353 237.58 6.46353C237.503 6.67912 237.363 6.95828 237.267 7.08346C237.173 7.20963 237.256 7.79181 237.769 7.98852C237.769 7.98852 237.769 7.9885 238.038 7.37156C238.1 7.22849 238.426 7.14407 238.649 7.09141C238.736 7.07154 238.935 7.19374 238.978 7.28613C239.042 7.42621 239.032 7.57721 239.25 7.40136C239.434 7.25234 239.629 7.22552 239.749 7.43217C239.839 7.58615 239.932 7.80471 239.87 7.9428C239.757 8.19315 239.522 8.40081 239.348 8.63229C239.174 8.86575 239.174 8.86574 239.174 8.86574C239.307 9.10616 239.695 9.40023 240.038 9.51945C240.379 9.63966 241.09 9.70027 241.343 9.69828C241.596 9.69629 242.619 10.3063 242.769 10.5169C242.92 10.7275 243.718 10.8527 243.769 10.9083C243.819 10.9649 243.812 11.3951 243.78 11.8392C243.78 11.8392 243.78 11.8392 244.075 12.1998C244.185 12.3349 244.185 12.335 244.185 12.335C244.253 12.5187 244.1 12.7602 243.847 12.8714C243.847 12.8714 243.847 12.8714 243.67 13.0413C243.387 13.3135 243.413 13.3344 243.194 13.1873C243.16 13.1645 243.136 13.1317 243.102 13.1108C242.746 12.8843 242.746 12.8843 242.746 12.8843C242.594 13.1754 242.395 13.2479 242.303 13.0453C242.213 12.8416 241.375 12.7979 241.14 12.8386C240.905 12.8794 240.255 13.1158 240.562 13.2142C240.871 13.3115 241.45 13.6761 241.336 13.8609C241.336 13.8609 241.336 13.8609 241.576 13.9841C241.975 14.1888 241.975 14.1888 241.975 14.1888C242.247 13.8669 242.48 13.6563 242.493 13.7208C242.506 13.7854 242.72 13.9493 242.897 13.9831C243.076 14.0169 242.862 14.5434 242.572 14.606C242.572 14.606 242.572 14.606 242.42 14.768C242.252 14.9468 242.252 14.9468 242.252 14.9468C242.109 15.2597 242.084 15.5558 242.198 15.6065C242.312 15.6551 242.353 16.0068 242.06 16.286C241.768 16.5652 241.096 17.2983 241.188 17.3272C241.278 17.356 241.465 17.5676 241.342 17.7156C241.342 17.7156 241.342 17.7156 241.232 17.7196C241.007 17.7265 241.007 17.7265 241.007 17.7265C240.784 17.7881 240.54 18.0474 240.464 18.3027C240.464 18.3027 240.464 18.3027 240.712 18.5133C240.79 18.5789 240.405 19.7721 240.297 19.8416C240.041 20.0065 240.041 20.0065 240.041 20.0065C239.761 20.1804 239.53 20.4287 239.527 20.5599C239.524 20.689 239.178 21.1301 239.101 21.305C239.101 21.305 239.101 21.305 238.985 21.4351C238.725 21.7262 238.725 21.7262 238.725 21.7262C238.903 22.0263 239.047 22.525 239.046 22.8359C239.046 22.8359 239.046 22.836 238.981 23.1141C238.887 23.5125 238.887 23.5125 238.887 23.5125C239.226 23.5562 239.367 23.7023 239.197 23.8354C239.027 23.9695 238.305 24.35 238.018 24.345C238.018 24.345 238.018 24.345 237.722 24.357C237.28 24.3748 237.28 24.3748 237.28 24.3748C236.951 24.6431 236.585 24.8914 236.468 24.9262C236.468 24.9262 236.468 24.9262 236.457 24.9083C236.197 24.507 235.936 25.0832 235.64 24.8964C235.396 24.7404 235.075 24.6639 234.76 24.5894C234.729 24.5815 234.729 24.5815 234.729 24.5815C234.607 24.8338 234.307 24.9292 234.064 24.7931C233.822 24.657 233.131 25.0156 233.075 25.0266C233.075 25.0266 233.075 25.0265 233.057 25.0087C232.857 24.808 232.549 25.0047 232.415 24.9302C232.032 24.7146 232.032 24.7146 232.032 24.7146C231.705 24.8716 231.158 24.8576 230.818 24.6828C230.818 24.6828 230.818 24.6828 230.467 24.963C230.404 25.0126 230.404 25.0126 230.404 25.0126C230.256 24.9878 229.69 24.8288 229.146 24.6599C229.146 24.6599 229.146 24.66 228.649 24.9888C228.568 25.0424 228.568 25.0424 228.568 25.0424C228.416 25.0206 228.136 25.0335 227.946 25.0713C227.756 25.109 227.118 24.8974 226.965 24.8497C226.811 24.802 226.301 24.8835 226.145 24.9739C225.988 25.0643 225.129 24.95 224.775 24.9848C224.775 24.9848 224.775 24.9848 224.443 25.0057C224.285 25.0146 224.069 25.0166 223.973 24.9381C223.737 24.7464 223.737 24.7464 223.737 24.7464C223.515 24.8467 223.034 25.0176 222.666 25.1249C222.666 25.1249 222.666 25.1249 222.336 25.2352C222.247 25.265 222.19 25.3673 222.118 25.4378C221.937 25.6157 221.937 25.6157 221.937 25.6157C221.845 25.4229 221.678 25.3027 221.565 25.3494C221.451 25.3951 221.102 25.8491 221.108 26.2286C221.108 26.2286 221.108 26.2286 221.085 26.5853C221.08 26.6469 221.08 26.6469 221.08 26.6469C220.457 26.6439 219.805 26.6986 219.632 26.7681C219.632 26.7681 219.632 26.7681 219.72 26.6976C220.333 26.2098 220.333 26.2098 220.333 26.2098C220.324 26.637 220.457 26.9529 220.629 26.9112C220.799 26.8694 220.813 26.4035 220.806 26.2267C220.8 26.0488 220.523 25.568 220.444 25.5074C220.366 25.4468 219.929 25.7448 219.754 25.8998C219.579 26.0558 220.589 26.8168 221.374 27.0324C221.374 27.0324 221.374 27.0324 221.594 26.8456C221.844 26.633 221.844 26.633 221.844 26.633C222.066 26.2783 222.503 26.0707 222.815 26.173C223.125 26.2753 223.891 26.63 223.869 26.3787C223.869 26.3787 223.869 26.3787 223.927 26.2247C223.95 26.166 223.95 26.1661 223.95 26.1661C224.163 26.1531 224.316 26.1889 224.29 26.2465C224.263 26.3042 224.283 26.5068 224.411 26.5237C224.54 26.5406 224.865 26.6598 224.829 26.7492C224.829 26.7492 224.829 26.7492 224.811 26.7482C224.453 26.7194 224.453 26.7194 224.453 26.7194C224.147 26.9449 224.099 27.1824 224.345 27.2479C224.345 27.2479 224.345 27.248 224.43 27.1844C224.783 26.9191 224.783 26.9191 224.783 26.9191C225.206 26.928 225.726 26.9887 225.938 27.0552C226.15 27.1208 226.655 26.7631 226.75 26.7373C226.75 26.7373 226.75 26.7373 226.809 26.7651C227.03 26.8724 227.03 26.8724 227.03 26.8724C227.251 26.9936 227.619 27.0324 227.851 26.9579C227.851 26.9579 227.851 26.9579 228.076 27.1337C228.145 27.1874 228.353 27.1108 228.499 27.0989C228.587 27.092 228.587 27.092 228.587 27.092C228.685 27.091 228.765 27.1883 228.765 27.3076C228.765 27.3076 228.765 27.3075 228.765 27.4158C228.765 27.5619 228.765 27.5619 228.765 27.5619C228.765 27.7218 228.615 28.0576 228.432 28.308C228.432 28.308 228.432 28.308 228.044 28.2941C227.631 28.2792 227.631 28.2792 227.631 28.2792C227.057 28.2851 227.127 28.61 227.785 28.9985C227.785 28.9985 227.785 28.9985 228.48 28.9518C228.769 28.9319 228.769 28.9319 228.769 28.9319C228.92 28.7491 229.199 28.5653 229.389 28.5236C229.389 28.5236 229.39 28.5236 229.463 28.5802C229.684 28.7491 229.684 28.7491 229.684 28.7491C229.703 29.0988 229.829 29.4932 229.962 29.6253C229.962 29.6253 229.962 29.6253 230.151 29.5906C230.218 29.5786 230.299 29.4187 230.284 29.3392C230.272 29.2726 230.272 29.2727 230.272 29.2727C230.146 29.213 229.878 29.221 229.675 29.2885C229.675 29.2885 229.675 29.2885 229.419 29.217C229.254 29.1713 229.064 29.3819 228.709 29.2856C228.232 29.1564 228.232 29.1564 228.232 29.1564C227.607 29.2915 226.914 29.6114 226.693 29.8697C226.693 29.8697 226.693 29.8697 226.98 30.1449C227.052 30.2145 227.052 30.2145 227.052 30.2145C227.202 30.2612 227.682 30.0138 228.118 29.6641C228.118 29.6641 228.118 29.6641 228.712 29.8856L229.699 30.444C230.132 29.9889 230.132 29.9889 230.132 29.9889C229.905 29.6561 229.83 29.2359 229.965 29.0551C230.099 28.8743 230.599 28.5295 230.875 28.8137C230.875 28.8137 230.875 28.8137 231.008 29.0243C231.061 29.1087 230.996 29.2806 230.925 29.3799C230.829 29.5121 230.829 29.5121 230.829 29.5121C230.717 30.0168 230.879 30.3853 231.19 30.3297C231.502 30.276 231.99 30.9894 231.854 31.0887C231.717 31.1871 231.307 31.5894 231.56 31.5308C231.815 31.4732 234.339 31.1602 234.726 31.0033C235.113 30.8463 234.592 30.745 234.072 30.8185C234.072 30.8185 234.072 30.8185 233.637 31.0063C233.507 31.0629 233.507 31.0629 233.507 31.0629C233.341 31.0857 233.228 31.0579 233.255 31.0013C233.283 30.9456 233.224 30.743 233.061 30.6774C233.061 30.6774 233.061 30.6774 233.034 30.7052C232.857 30.8811 232.722 31.0867 232.56 31.2745C232.437 31.4166 232.437 31.4165 232.437 31.4165C232.571 31.6063 232.895 31.8288 233.155 31.9113C233.415 31.9938 233.929 31.4295 233.999 31.3649C234.069 31.3013 234.307 31.3977 234.353 31.7285C234.353 31.7285 234.353 31.7285 234.835 31.5238C235.107 31.4076 235.107 31.4076 235.107 31.4076C234.51 31.3421 233.628 31.1771 233.147 31.042C232.667 30.9069 232.705 30.4578 232.83 30.3277C232.955 30.1976 233.296 29.8618 233.321 29.8737C233.321 29.8737 233.321 29.8737 233.333 29.9045C233.401 30.0942 233.398 30.4012 233.536 30.4559C233.918 30.6099 233.918 30.6099 233.918 30.6099C233.938 30.3247 234.022 30.0197 234.106 29.9343C234.19 29.8479 235.312 30.0416 236.094 30.2045C236.094 30.2045 236.094 30.2045 236.816 29.8498C237.063 29.7276 237.063 29.7276 237.063 29.7276C237.019 29.9422 237.066 30.1797 237.168 30.2552C237.269 30.3307 237.656 30.4797 237.684 30.3297C237.709 30.1797 238.019 29.9283 238.329 30.0148C238.64 30.1022 238.384 30.89 238.531 31.0341C238.679 31.1781 239.58 31.2437 240.299 30.9506C240.299 30.9506 240.299 30.9506 240.946 30.741C241.027 30.7152 241.027 30.7152 241.027 30.7152C241.237 30.9407 241.462 31.0847 241.523 31.0361C241.585 30.9864 241.759 30.8264 241.776 30.7837C241.776 30.7837 241.776 30.7837 241.767 30.7787C241.503 30.6208 241.503 30.6208 241.503 30.6208C241.207 30.4578 240.838 30.3337 240.681 30.3466C240.681 30.3466 240.681 30.3466 240.536 30.3575C240.446 30.3655 240.334 30.3943 240.269 30.3605C239.691 30.0625 239.769 30.427 239.754 30.7181C239.75 30.7787 239.75 30.7787 239.75 30.7787C239.695 30.8443 239.641 30.7728 239.629 30.6198C239.617 30.4678 239.062 30.3853 238.987 30.287C238.987 30.287 238.987 30.287 239.006 30.2045C239.021 30.1389 239.199 30.0316 239.254 30.0505C239.576 30.1628 239.861 29.7038 240.222 30.0178C240.267 30.0575 240.267 30.0575 240.267 30.0575C240.636 29.8369 240.984 29.7783 241.041 29.9263C241.041 29.9263 241.041 29.9264 241.171 30.0178C241.229 30.0605 241.229 30.0605 241.229 30.0605C241.427 29.9661 241.719 29.8151 241.879 29.7237C242.039 29.6323 242.604 29.4614 242.673 29.6124C242.741 29.7634 242.979 30.1757 243.028 30.1499C243.028 30.1499 243.028 30.1499 243.11 30.127C243.599 29.9969 243.599 29.9969 243.599 29.9969C244.133 29.8459 244.808 29.8031 245.099 29.9005C245.099 29.9005 245.099 29.9005 245.097 29.9263C245.069 30.3009 245.324 30.7231 244.88 31.045C244.844 31.0718 244.904 31.2685 244.98 31.3172C245.049 31.3609 245.259 31.346 245.305 31.2934C245.442 31.1324 245.523 30.9357 245.641 30.7609C245.71 30.6595 245.71 30.6595 245.71 30.6595C245.811 30.5592 245.927 30.5801 245.97 30.7062C246.011 30.8314 246.248 31.1861 246.364 31.2298C246.48 31.2745 246.86 31.203 246.958 31.2805C247.055 31.3579 247.359 31.5169 247.391 31.4414C247.423 31.3659 247.595 31.2407 247.687 31.3599C247.78 31.4792 248.309 31.6421 248.57 31.344C248.57 31.344 248.57 31.344 248.857 31.1573C248.874 31.1453 248.874 31.1453 248.874 31.1453C249.059 31.3152 249.134 31.5229 249.044 31.6053C248.953 31.6888 248.782 31.9679 248.925 31.9868C249.067 32.0057 249.469 32.1676 249.413 32.2908C249.356 32.414 249.335 32.8263 249.53 32.8521C249.725 32.877 249.906 33.1452 249.423 33.3796C249.423 33.3796 249.423 33.3797 249.035 33.5943C248.902 33.6678 248.768 33.79 248.719 33.9141C248.669 34.0383 248.671 34.233 248.757 34.3234C248.835 34.4049 249.079 34.4427 249.209 34.4029C249.48 34.3215 249.48 34.3215 249.48 34.3215C249.481 34.0761 249.55 33.7929 249.634 33.6916C249.634 33.6916 249.634 33.6916 249.737 33.6489C250.047 33.5207 250.957 33.8784 250.991 34.1506C251 34.2301 251 34.2301 251 34.2301C250.854 34.3324 250.569 34.5192 250.368 34.6463C250.166 34.7725 249.725 35.2364 249.711 35.2901C249.698 35.3427 249.54 35.3398 249.389 35.1252C249.389 35.1252 249.389 35.1252 249.231 35.0954C249.092 35.0685 249.092 35.0685 249.092 35.0685C248.853 35.2414 248.762 35.4471 248.891 35.5265C249.02 35.606 249.464 36.3054 249.454 36.823C249.454 36.823 249.454 36.823 249.477 37.3585C249.503 37.9496 249.503 37.9496 249.503 37.9496C248.967 38.2943 248.509 38.4851 248.485 38.3758C248.462 38.2655 248.292 38.049 248.162 38.1404C248.033 38.2318 248.102 38.7444 247.968 38.7633C247.834 38.7832 247.511 39.0097 247.684 39.2054C247.684 39.2054 247.684 39.2054 247.815 39.2054C248.037 39.2064 248.25 39.0484 248.478 39.0176C248.651 38.9938 248.949 38.9123 248.95 39.2024C248.951 39.3554 248.891 39.6067 248.777 39.6455C248.382 39.7826 248.382 39.7826 248.382 39.7826C247.973 39.8551 247.667 39.561 247.702 39.1279C247.702 39.1279 247.702 39.1279 247.085 39.2421C246.598 39.3325 246.598 39.3325 246.598 39.3325C246.798 39.724 246.777 40.0558 246.552 40.0687C246.329 40.0816 245.682 40.022 245.662 39.9048C245.64 39.7866 245.457 39.5819 245.309 39.7468C245.161 39.9117 244.69 40.3042 244.662 40.171C244.635 40.0389 244.454 39.6971 244.344 39.8223C244.233 39.9475 243.519 40.2565 243.029 40.2048C243.029 40.2048 243.029 40.2048 242.687 40.3846C242.323 40.5744 242.323 40.5744 242.323 40.5744C241.972 40.5505 241.369 40.5535 240.985 40.5803C240.985 40.5803 240.985 40.5803 240.63 40.5624C240.512 40.5565 240.512 40.5565 240.512 40.5565C240.379 40.6022 239.945 40.5803 239.548 40.5068C239.15 40.4323 238.032 40.6847 237.939 40.6409C237.846 40.5962 237.405 40.5366 237.176 40.5158C236.946 40.4949 236.358 40.5446 236.183 40.4333C236.007 40.322 235.279 40.8078 234.936 40.944C234.936 40.944 234.936 40.9439 234.875 40.4293C234.854 40.2614 234.854 40.2614 234.854 40.2614C234.614 40.3638 234.287 40.5009 234.128 40.5644C233.969 40.629 233.677 40.8555 233.581 40.7164C233.484 40.5774 232.733 40.7522 232.52 40.78C232.307 40.8068 231.681 40.6956 231.554 40.6479C231.426 40.6002 231.055 40.8664 230.977 40.931C230.897 40.9946 230.507 40.8774 230.405 40.8376C230.303 40.7989 229.754 40.8883 229.419 41.0403C229.084 41.1923 227.881 40.7771 227.519 40.7492C227.158 40.7224 226.227 41.1983 226.069 41.2231C225.911 41.249 225.315 41.1744 225.078 41.397C225.078 41.397 225.078 41.397 224.646 41.1079C224.462 40.9847 224.009 41.1864 223.677 41.1844C223.401 41.1834 223.126 41.0701 222.849 41.0642C222.644 41.0602 222.433 41.1397 222.229 41.1953C221.759 41.3235 221.759 41.3234 221.759 41.3234C221.731 41.0254 221.732 40.939 221.762 41.1327C221.792 41.3254 221.006 41.1039 220.73 41.2022C220.73 41.2022 220.73 41.2022 220.482 41.1814C219.453 41.093 219.453 41.093 219.453 41.093C218.319 41.0294 217.063 40.9986 216.665 41.0264C216.264 41.0532 215.175 41.3145 215.094 41.3532C215.013 41.391 214.62 41.4466 214.24 41.4993C214.24 41.4993 214.24 41.4993 214.137 41.394C213.807 41.0582 213.44 41.4049 213.227 41.3076C212.845 41.1337 212.845 41.1337 212.845 41.1337C212.451 41.1744 211.955 41.1695 211.744 41.1228C211.532 41.0761 210.664 41.4119 210.18 41.4754C210.18 41.4754 210.18 41.4755 209.716 41.234C209.453 41.0979 209.453 41.0979 209.453 41.0979C209.007 41.2013 208.515 41.239 208.359 41.1814C208.203 41.1238 207.827 41.2996 207.738 41.1943C207.651 41.088 207.25 40.8833 207.054 40.9847C206.859 41.087 206.146 41.3473 205.951 41.3632C205.756 41.3811 205.227 41.2807 205.073 41.2072C204.917 41.1337 204.039 41.4059 203.514 41.5221C202.988 41.6364 201.512 41.3423 201.397 41.4407C201.282 41.539 200.803 41.2897 200.684 41.2648C200.564 41.24 200.247 41.3294 200.197 41.2549C200.147 41.1804 199.967 41.0354 199.92 41.1188C199.875 41.2023 199.545 41.3374 199.307 41.2032C199.07 41.0691 198.246 41.4208 198.049 41.4437C198.049 41.4437 198.049 41.4437 197.933 41.3741C197.505 41.1158 197.135 41.1257 196.7 41.3811C196.329 41.5996 195.937 41.0681 195.697 41.2211C195.333 41.4526 194.936 41.4933 194.65 41.3761C194.4 41.2748 194.298 41.3026 194.083 41.3652C193.942 41.4049 193.599 41.2231 193.584 41.247C193.393 41.5629 193.172 41.1228 193.027 41.2688C192.872 41.4238 192.808 41.3542 192.653 41.2599C192.341 41.0711 192.341 41.0711 192.341 41.0711C191.942 41.1307 191.093 41.2469 190.454 41.3304C189.815 41.4129 187.608 41.3383 187.335 41.3999C187.335 41.3999 187.335 41.3999 187.084 41.4059C186.36 41.4238 186.36 41.4238 186.36 41.4238C185.569 41.4019 184.769 41.4765 184.585 41.5897C184.402 41.705 183.453 41.5013 183.062 41.4347C183.062 41.4347 183.061 41.4347 182.697 41.4178C182.272 41.397 181.845 41.4069 181.42 41.4149C181.145 41.4198 181.145 41.4198 181.145 41.4198C181.044 41.236 180.922 41.088 180.876 41.091C180.828 41.094 180.599 41.1655 180.468 41.242C180.338 41.3185 179.936 41.54 179.798 41.4546C179.661 41.3691 178.753 41.5947 178.112 41.5748C177.473 41.5549 175.606 41.3831 175.376 41.3463C175.143 41.3105 174.426 41.5182 174.258 41.397C174.091 41.2758 173.276 41.5609 173.055 41.5788C172.833 41.5967 172.002 41.6593 171.717 41.693C171.433 41.7278 170.596 41.4625 170.39 41.5231C170.183 41.5847 169.425 41.5937 169.219 41.5281C169.013 41.4635 168.036 41.5877 167.613 41.5688C167.613 41.5688 167.613 41.5688 167.209 41.4625C166.886 41.3781 166.886 41.3781 166.886 41.3781C166.36 41.5221 165.372 41.6384 164.692 41.6374C164.013 41.6364 161.805 41.699 161.296 41.7854C161.296 41.7854 161.296 41.7854 161.145 41.2172C161.133 41.1734 161.133 41.1734 161.133 41.1734C160.785 41.1804 160.537 41.2479 160.581 41.3234C160.625 41.3989 160.585 41.6274 160.368 41.6215C160.151 41.6165 159.337 41.7208 159.011 41.8242C159.011 41.8242 159.011 41.8242 158.65 41.6523C158.447 41.5549 158.447 41.5549 158.447 41.5549C158.315 41.4158 158.116 41.2966 158.006 41.2897C158.006 41.2897 158.006 41.2897 157.959 41.3294C157.861 41.4129 157.782 41.6255 157.729 41.6165C156.713 41.4616 156.713 41.4615 156.713 41.4615C155.601 41.6573 154.674 41.705 154.657 41.5669C154.638 41.4278 154.391 41.1069 154.153 41.2032C154.153 41.2032 154.153 41.2032 153.958 41.1804C153.529 41.1317 153.698 41.5023 153.522 41.5748C153.349 41.6473 153.113 41.5986 152.913 41.6354C152.682 41.6781 152.466 41.7805 152.235 41.8103C152.098 41.8281 152.098 41.8281 152.098 41.8281C151.933 41.7735 151.62 41.6881 151.4 41.6374C151.18 41.5867 150.602 41.7079 150.466 41.7646C150.332 41.8212 149.699 41.7 149.496 41.7536C149.292 41.8073 148.276 41.854 147.698 42C147.698 42 147.698 42 147.186 41.6444C147.061 41.5579 146.711 41.5659 146.577 41.6543C146.149 41.9394 146.149 41.9394 146.149 41.9394C145.703 41.7993 145.098 41.6513 144.803 41.6116C144.803 41.6116 144.803 41.6116 144.768 41.6761C144.504 42.157 144.151 41.5321 143.848 41.7606C143.555 41.9791 143.555 41.9791 143.555 41.9791C143.232 41.8073 142.612 41.5987 142.178 41.5162C142.178 41.5162 142.178 41.5162 141.765 41.7765C141.475 41.9593 141.475 41.9593 141.475 41.9593C141.252 41.6682 140.812 41.4864 140.495 41.5569C140.495 41.5569 140.495 41.5569 140.402 41.691C140.184 42 140.013 41.55 139.84 41.7069C139.786 41.7546 139.786 41.7546 139.786 41.7546C139.718 41.7963 139.354 41.7685 138.975 41.692C138.598 41.6155 136.529 41.855 136.417 41.8778C136.417 41.8778 136.417 41.8778 136.378 41.845C136.117 41.6175 135.784 41.4963 135.506 41.7199C135.162 41.9951 135.091 41.4844 134.761 41.6056C134.51 41.697 134.51 41.697 134.51 41.697C134.14 41.5619 133.341 41.5172 132.733 41.5986C132.733 41.5986 132.733 41.5986 132.174 41.6255C131.844 41.6414 131.304 41.695 131.217 41.5609C130.979 41.1943 130.979 41.1943 130.979 41.1943C130.731 41.3523 130.452 41.4735 130.361 41.4635C130.269 41.4526 129.894 41.4794 129.618 41.4387C129.618 41.4387 129.618 41.4387 129.382 41.4297C129.167 41.4218 128.945 41.5679 128.718 41.6195C128.69 41.6255 128.69 41.6255 128.69 41.6255C128.614 41.4923 128.465 41.3215 128.359 41.245C128.252 41.1685 127.994 41.4903 127.906 41.6523C127.906 41.6523 127.906 41.6523 127.656 41.6324C127.344 41.6086 127.344 41.6086 127.344 41.6086C127 41.6215 126.402 41.6593 126.015 41.693C126.015 41.693 126.015 41.693 125.651 41.6424C125.285 41.5917 125.285 41.5917 125.285 41.5917C124.867 41.6136 124.506 41.5291 124.482 41.4049C124.457 41.2807 124.382 40.9777 124.362 40.9777C124.34 40.9767 124.263 41.0751 124.234 41.1963C124.207 41.3185 123.978 41.6483 123.8 41.6145C123.8 41.6145 123.8 41.6145 123.738 41.547C123.397 41.1724 123.405 41.1675 122.929 41.4983C122.877 41.5341 122.877 41.5341 122.877 41.5341C122.82 41.5688 122.379 41.6314 121.896 41.6721C121.414 41.7139 120.152 41.2877 120.004 41.3741C119.857 41.4605 119.571 41.2827 119.708 41.1655C119.844 41.0493 120.099 40.7095 119.844 40.7761C119.591 40.8426 119.016 41.2549 118.919 41.398C118.919 41.398 118.919 41.398 118.832 41.397C118.644 41.395 118.459 41.2678 118.27 41.2648C118.103 41.2629 117.938 41.387 117.764 41.4049C117.561 41.4258 117.317 41.4467 117.147 41.3721C116.554 41.1109 116.554 41.1108 116.554 41.1108C115.921 41.2589 115.221 41.39 114.996 41.4029C114.996 41.4029 114.996 41.4029 114.814 41.3483C114.518 41.2579 113.844 41.1079 113.573 41.2022C113.012 41.398 113.012 41.398 113.012 41.398C112.503 41.1764 112.023 41.0989 111.942 41.2271C111.863 41.3552 110.637 41.2211 109.902 41.1963C109.902 41.1963 109.902 41.1963 109.221 41.1933C108.712 41.1913 108.712 41.1913 108.712 41.1913C108.161 41.1665 107.313 41.24 106.828 41.3552C106.828 41.3552 106.828 41.3552 106.36 41.2072C106.104 41.1257 105.439 40.9459 105.236 40.8376C105.135 40.782 104.831 40.8188 104.826 40.8426C104.745 41.2748 104.548 41.3403 104.19 41.0205C104.165 40.9976 104.165 40.9976 104.165 40.9976C104.121 40.9867 103.684 41.082 103.194 41.2092C103.194 41.2092 103.194 41.2092 102.818 41.1178C102.358 41.0046 102.001 40.8784 101.575 41.1744C101.467 41.2489 101.185 41.1556 100.989 41.1178C100.837 41.089 100.837 41.089 100.837 41.089C100.677 41.0294 100.401 41.0671 100.223 41.1734C100.044 41.2788 99.2278 41.0969 99.0087 41.0701C98.7886 41.0443 97.8221 41.0423 97.3545 41.1277C97.3545 41.1277 97.3545 41.1277 97.0106 40.7919C97.0031 40.784 96.9011 40.8664 96.8368 40.8774C95.7807 41.0592 95.7807 41.0592 95.7807 41.0592C95.2101 40.9261 94.6688 40.8128 94.5753 40.8058C94.4836 40.7999 93.7411 40.8635 93.0364 40.8655C93.0364 40.8655 93.0364 40.8655 92.4034 40.9549C92.3401 40.9638 92.3401 40.9638 92.3401 40.9638C92.223 40.7304 92.0889 40.6618 92.0435 40.8118C91.9963 40.9628 90.9402 41.0612 90.294 41.1555C90.294 41.1555 90.294 41.1556 89.7782 40.7651C89.7347 40.7323 89.7347 40.7323 89.7347 40.7323C89.5817 40.8019 89.1575 40.8665 88.7919 40.8734C88.7919 40.8734 88.7919 40.8734 88.4623 40.7651C88.1892 40.6767 87.9663 41.2231 87.6045 40.8446C87.545 40.783 87.3248 40.8257 87.1803 40.8337C87.0887 40.8386 86.9961 40.8923 86.9101 40.8823C86.7618 40.8655 86.7618 40.8655 86.7618 40.8655C86.6116 40.8237 86.2168 40.8684 85.8842 40.9658C85.8842 40.9658 85.8842 40.9658 85.682 40.7025C85.4043 40.3419 85.1965 40.93 84.8592 40.7006C84.5182 40.4691 84.7053 40.1412 84.4984 39.9485C84.403 39.8571 84.0752 39.8511 83.924 39.9197C83.6189 40.0588 83.6189 40.0588 83.6189 40.0588C83.3185 40.2833 83.138 40.4879 83.2164 40.5118C83.2948 40.5356 83.2419 40.6658 82.8934 40.7363C82.8934 40.7363 82.8934 40.7363 82.576 40.6777C82.3832 40.6419 82.1924 40.5366 82.0063 40.5466C81.4244 40.5774 81.4244 40.5774 81.4244 40.5774C81.073 40.2167 80.7858 40.0299 80.7858 40.1641C80.7858 40.2982 80.5052 40.8237 80.1613 40.8128C79.8184 40.8019 79.0514 40.3737 79.0079 40.4393C79.0079 40.4393 79.0079 40.4393 78.9569 40.4919C78.869 40.5833 78.869 40.5833 78.869 40.5833C78.7717 40.6717 78.3957 40.7184 78.0358 40.6886C77.6768 40.6568 76.6519 40.4422 76.5357 40.3459C76.4195 40.2505 76.0643 40.2396 76.0482 40.3866C76.0331 40.5326 75.5267 40.5356 75.5012 40.5316C75.4748 40.5267 75.3945 40.2525 75.3595 39.8998C75.3595 39.8998 75.3595 39.8998 74.822 40.2336C74.5745 40.3866 74.2495 40.4561 73.9482 40.5307C73.7933 40.5694 73.7933 40.5694 73.7933 40.5694C73.541 40.5525 73.3332 40.3796 73.3304 40.1859C73.3304 40.1859 73.3304 40.1859 73.336 40.017C73.3408 39.8303 73.354 39.6326 73.0356 39.6663C72.7031 39.7021 72.8637 39.9386 72.8221 40.0925C72.8032 40.1571 72.8032 40.1571 72.8032 40.1571C72.7409 40.2892 72.6256 40.3061 72.5491 40.1959C72.4726 40.0856 72.0938 39.9554 71.9285 40.2207C71.9285 40.2207 71.9285 40.2207 71.7953 40.3826C71.7367 40.4532 71.6101 40.5307 71.5213 40.5247C71.4391 40.5197 71.4391 40.5197 71.4391 40.5197C71.3635 40.4234 71.254 40.2008 71.1973 40.027C71.1406 39.8531 70.6465 39.7746 70.7542 39.8293C70.8619 39.8859 70.7259 40.3181 70.2139 40.6678C70.2139 40.6678 70.2139 40.6678 69.7595 40.2297C69.5791 40.0568 69.579 40.0568 69.579 40.0568C69.3948 40.1372 69.102 40.2883 68.9291 40.3936C68.7553 40.4979 67.856 40.1432 67.7757 40.1045C67.7757 40.1045 67.7757 40.1045 67.7029 40.1055C67.6302 40.1075 67.6302 40.1074 67.6302 40.1074C67.5518 40.1482 67.5168 40.2177 67.5527 40.2614C67.5877 40.3051 67.2627 40.5495 66.7063 40.6538C66.7063 40.6538 66.7063 40.6539 66.4078 40.5009C65.9449 40.2644 65.9449 40.2644 65.9449 40.2644C65.5018 40.3528 65.1787 40.3369 65.2279 40.2306C65.277 40.1233 65.0049 39.5203 64.4797 39.2054C64.4797 39.2054 64.4797 39.2054 63.7853 39.5958C63.3583 39.8342 63.3583 39.8342 63.3583 39.8342C62.6593 39.6206 62.2446 39.4587 62.4373 39.4756C62.4373 39.4756 62.4373 39.4756 62.4533 39.4388C62.6526 38.9918 62.6527 38.9918 62.6527 38.9918C63.0825 39.0842 63.4887 39.1776 63.5539 39.1984C63.62 39.2203 63.6691 38.8457 63.2062 38.8825C63.2062 38.8825 63.2062 38.8825 62.9531 38.7245C62.3938 38.3748 62.3938 38.3748 62.3938 38.3748C62.2247 38.7225 62.0726 38.9461 62.0556 38.8716C62.0396 38.797 61.8828 38.5785 61.743 38.5497C61.6041 38.5209 61.2933 38.7951 61.2602 38.8686C61.2262 38.9411 60.9088 39.2292 60.6887 39.4041C60.4705 39.5779 60.1379 40.4085 60.1049 40.2426C60.0718 40.0766 59.8687 39.6693 59.7213 39.6783C59.5739 39.6862 59.0893 39.6197 58.9835 39.5789C58.8758 39.5382 58.616 39.6445 58.7568 39.715C58.8985 39.7856 59.2726 40.0518 59.2915 40.1303C59.2915 40.1303 59.2915 40.1303 59.266 40.1939C59.2509 40.2346 59.147 40.2893 59.1063 40.2783C58.8466 40.2038 58.8466 40.2038 58.8466 40.2038C58.5093 40.0876 58.2325 39.8849 58.2325 39.7518C58.2325 39.6197 58.105 39.2531 57.9491 39.3067C57.7942 39.3594 57.6695 39.869 57.6109 40.0131C57.5542 40.1571 56.9714 40.0856 56.9128 40.0667C56.8561 40.0478 56.7239 39.6942 56.8986 39.3723C57.0715 39.0494 57.1405 38.3977 56.8864 38.7166C56.6313 39.0355 55.8415 39.7587 55.6771 39.6415C55.5118 39.5223 55.1453 39.9028 55.0697 40.0369C54.9951 40.171 54.3593 40.2167 54.2582 40.0478C54.1553 39.8799 54.9791 39.5779 55.1973 39.4965C55.4146 39.415 56.0427 39.1686 56.0919 39.0901C56.141 39.0126 56.1835 38.7156 56.1618 38.6232C56.1618 38.6232 56.1618 38.6232 56.1164 38.6123C56.0097 38.5884 55.8321 38.5695 55.7839 38.6192C55.6063 38.803 55.6063 38.803 55.6063 38.803C55.4429 39.0265 55.2606 39.2024 55.2001 39.1924C55.1396 39.1845 54.9667 39.0593 54.9564 38.9391C54.946 38.8199 54.6938 38.4484 54.605 38.3411C54.5162 38.2338 54.2308 37.9824 54.1694 38.0221C54.1071 38.0619 53.7623 38.3063 53.5771 38.5258C53.5771 38.5258 53.5771 38.5258 53.7916 38.5388C54.2818 38.5676 54.2818 38.5676 54.2818 38.5676C54.4897 38.8626 54.6607 39.1358 54.6635 39.1756C54.6663 39.2143 54.5067 39.4041 54.297 39.418C54.297 39.418 54.297 39.418 54.1071 39.4468C53.9522 39.4706 53.9522 39.4706 53.9522 39.4706C53.7887 39.5193 53.5979 39.5918 53.5308 39.6316C53.4638 39.6703 53.2002 39.5133 53.102 39.5918C53.0037 39.6693 52.6995 39.724 52.6126 39.56C52.5276 39.3971 52.0307 39.0236 51.7671 39.2173C51.7671 39.2173 51.7672 39.2173 51.5858 39.3514C51.3949 39.4935 51.3949 39.4935 51.3949 39.4935C51.2419 39.3832 50.8829 39.1756 50.5995 39.0335C50.5995 39.0335 50.5995 39.0335 50.421 38.797C50.2434 38.5606 50.2433 38.5606 50.2433 38.5606C49.9637 38.7086 49.6114 38.8885 49.4593 38.961C49.4593 38.961 49.4593 38.961 49.3809 39.0613C49.224 39.257 49.2241 39.257 49.2241 39.257C49.0739 39.5193 48.7205 39.6544 48.44 39.5571C48.1603 39.4597 47.672 39.0663 47.4868 39.0126C47.3016 38.96 46.8623 38.9232 46.9389 39.1398C46.9389 39.1398 46.9389 39.1398 46.8746 39.2014C46.7518 39.3196 46.5223 39.3514 46.3739 39.4567C46.3362 39.4836 46.3362 39.4836 46.3362 39.4836C46.4108 39.6326 46.4061 39.7826 46.3267 39.8164C46.2483 39.8501 46.0159 39.722 45.9356 39.572C45.8553 39.4219 45.1686 39.0146 44.6367 39.0881C44.6367 39.0881 44.6367 39.0881 44.6858 39.713C44.6991 39.8889 44.0888 39.9694 43.9801 39.7975C43.8696 39.6236 43.9084 39.4686 44.2154 39.4309C44.307 39.419 44.4619 39.2064 44.4308 39.1458C44.3032 38.8964 44.3032 38.8964 44.3032 38.8964C44.1936 39.0563 43.8403 39.1587 43.5191 39.1249C43.198 39.0901 42.3392 39.3911 42.2297 39.3365C42.2297 39.3365 42.2296 39.3365 42.1182 39.3166C41.9774 39.2908 41.7866 39.2481 41.6903 39.3037C41.2944 39.5302 41.2944 39.5302 41.2944 39.5302C40.8844 39.3981 40.4839 39.2729 40.4036 39.2501C40.3233 39.2282 39.9341 39.2739 39.5883 39.3037C39.5883 39.3037 39.5883 39.3037 39.3172 39.108C39.2303 39.0454 39.2303 39.0454 39.2303 39.0454C39.0622 38.9947 38.8968 39.0633 38.8637 39.1974C38.8316 39.3315 38.4443 39.7836 38.1071 39.7935C37.7689 39.8034 36.8526 39.7419 36.8176 39.8054C36.8176 39.8054 36.8176 39.8054 36.777 39.863C36.7259 39.9336 36.7259 39.9336 36.7259 39.9336C36.6636 40.0071 36.589 40.0101 36.5616 39.9385C36.5616 39.9385 36.5616 39.9386 36.52 39.8819C36.4123 39.7359 36.4123 39.7359 36.4123 39.7359C36.2961 39.5918 35.9277 39.6276 35.5952 39.8154C35.5952 39.8154 35.5952 39.8154 35.5517 39.7766C35.239 39.4985 35.239 39.4984 35.239 39.4984C35.0199 39.6783 34.7383 39.7865 34.6118 39.7389C34.4861 39.6912 33.908 39.7826 33.6709 39.6942C33.4328 39.6057 32.6412 39.9098 32.4409 39.9564C32.2416 40.0031 31.6039 39.8114 31.3328 39.9594C31.3328 39.9594 31.3328 39.9594 31.0097 39.6793C30.7688 39.4706 30.7688 39.4706 30.7688 39.4706C30.3701 39.6127 29.7788 39.7309 29.4548 39.7329C29.4548 39.7329 29.4547 39.7329 29.1704 39.877C28.8785 40.024 28.8785 40.024 28.8785 40.024C28.5762 39.9018 28.1794 39.6693 27.9971 39.5074C27.9971 39.5074 27.9971 39.5074 27.7581 39.8074C27.5503 40.0677 27.3472 39.6813 27.1469 39.6803C26.9268 39.6783 26.5933 39.9236 26.5064 39.8611C26.1711 39.6206 25.8055 39.6445 25.4427 39.6693C25.0025 39.7001 24.5093 39.5004 24.1305 39.866C24.0918 39.9038 24.0918 39.9038 24.0918 39.9038C23.9804 39.8889 23.729 39.8154 23.5344 39.7389C23.3398 39.6624 22.5067 39.566 22.1137 39.6971C22.1137 39.6971 22.1136 39.6971 21.7802 39.6455C21.0802 39.5392 20.3934 39.3534 19.7198 39.1567C19.5725 39.113 19.5101 38.8755 19.3892 38.7404C19.3259 38.6689 19.2173 38.5765 19.1332 38.5795C18.9688 38.5864 18.7884 38.7096 18.6514 38.6749C18.5569 38.651 18.5569 38.651 18.5569 38.651C18.5031 38.4722 18.2594 38.2665 18.0166 38.194C17.7738 38.1215 17.0473 38.2268 16.8782 38.2556C16.8782 38.2556 16.8782 38.2556 16.7139 38.1453C16.3662 37.9119 15.9364 37.8542 15.2288 37.8552C15.1693 37.8552 15.0305 37.6297 15.0607 37.594C15.2137 37.4211 15.4962 37.2949 14.9549 37.2403C14.7083 37.2145 14.7329 36.976 14.9161 36.828C15.0068 36.7545 15.0068 36.7545 15.0068 36.7545C15.0947 36.667 15.1079 36.4872 15.038 36.3561C14.969 36.2249 15.328 36.0392 15.4612 36.1405C15.5963 36.2428 16.1093 36.0829 16.2453 36.1932C16.2453 36.1932 16.2453 36.1932 16.3171 36.3164C16.3672 36.4048 16.2944 36.5409 16.336 36.6372C16.3691 36.7127 16.4824 36.7803 16.5788 36.8121C16.6317 36.83 16.6317 36.83 16.6317 36.83C16.7186 36.7833 16.9122 36.5906 17.0634 36.4038C17.2126 36.217 17.5565 35.5524 17.4696 35.3795C17.3836 35.2076 16.6128 35.3606 16.3974 35.2971C16.3974 35.2971 16.3974 35.297 16.371 35.1967C16.2982 34.9225 16.2982 34.9225 16.2982 34.9225C16.1272 34.6662 15.9156 34.5649 15.8278 34.696C15.739 34.8271 15.6256 35.3875 15.4055 35.1828C15.1844 34.9782 14.2482 34.6771 14.1056 34.5559C13.9611 34.4357 14.3569 34.0105 14.5421 34.1387C14.7263 34.2678 15.2836 34.5619 15.3715 34.5063C15.4584 34.4496 15.6464 34.1128 15.7711 33.8953C15.7711 33.8953 15.7711 33.8953 16.1036 34.0999C16.2028 34.1605 16.4758 34.1715 16.5155 34.1188C16.6383 33.9599 16.6156 33.8376 16.3303 33.7383C16.1197 33.6638 16.1197 33.6638 16.1197 33.6638C15.9317 33.3866 15.9326 33.0747 16.1225 32.9713C16.1225 32.9713 16.1225 32.9713 16.2359 32.8322C16.301 32.7518 16.301 32.7518 16.301 32.7518C16.2585 32.5958 16.1471 32.4299 16.0526 32.3852C15.96 32.3395 15.3998 32.0464 14.9586 31.9739C14.9586 31.9739 14.9586 31.9739 14.8576 32.3166C14.6951 32.864 14.6951 32.864 14.6951 32.864C14.2407 32.7279 13.9819 32.571 14.1198 32.5153C14.2577 32.4607 14.5061 32.3067 14.4532 32.263C14.4003 32.2183 14.1065 31.964 13.91 31.7921C13.91 31.7921 13.91 31.7921 13.7221 31.6431C13.5567 31.5109 13.5567 31.5109 13.5567 31.5109C13.3404 31.5735 12.9843 31.5248 12.7651 31.4036C12.7651 31.4036 12.7651 31.4037 12.5393 31.3629C12.2956 31.3182 12.0311 31.353 11.776 31.353C11.35 31.353 10.9126 31.3013 10.5007 31.3669C10.1011 31.4314 9.79315 31.1642 9.38693 31.2506C9.18477 31.2934 8.89758 31.1533 8.68975 31.04C8.4054 30.8861 8.4054 30.886 8.4054 30.886C8.07004 30.886 7.45129 30.8324 7.02807 30.7658C6.6058 30.7003 5.19633 30.0714 4.70888 29.9234C4.70888 29.9234 4.70887 29.9234 4.24881 29.827C3.93612 29.7614 3.93614 29.7614 3.93614 29.7614C3.57999 29.7306 3.11898 29.6571 2.9121 29.5975C2.9121 29.5975 2.91209 29.5975 2.71843 29.4942C1.94002 29.0829 1.94002 29.0829 1.94002 29.0829C2.06566 28.6328 2.23855 28.0894 2.3264 27.8738C2.3264 27.8738 2.32639 27.8738 1.7473 27.9692C1.46201 28.0159 1.31086 27.8808 1.37227 27.6344C1.41383 27.4665 1.41385 27.4665 1.41385 27.4665C1.46203 27.2837 1.43178 27.0602 1.34581 26.9708C1.26079 26.8813 1.05297 26.5853 1.16633 26.5297C1.27969 26.473 1.69346 26.18 1.85123 26.0061C1.85123 26.0061 1.85123 26.0061 1.53004 25.9038C1.2627 25.8183 1.15121 25.6991 1.28064 25.5441C1.51303 25.268 1.51302 25.268 1.51302 25.268C1.29291 25.1249 0.940543 24.4493 0.72988 23.7668C0.72988 23.7668 0.729895 23.7668 0.249998 23.2284C0.136637 23.1002 0.136641 23.1002 0.136641 23.1002C0.328411 22.7336 0.373738 22.4207 0.23676 22.4028C0.0997814 22.3859 -0.106142 22.217 0.0648449 22.065C0.236777 21.913 0.0695572 21.3785 0.1952 21.3477C0.320842 21.3169 0.664719 20.999 0.563638 20.7367C0.563638 20.7367 0.563624 20.7367 0.477658 20.4923C0.386969 20.232 0.206542 19.9569 0.249053 19.7115C0.292508 19.4641 0.521121 19.2088 0.745955 19.028C0.897104 18.9058 1.30426 18.9654 1.38361 18.8422C1.55177 18.5839 1.55177 18.5839 1.55177 18.5839C1.79361 18.6157 2.10346 18.6514 2.2395 18.6614C2.37553 18.6713 3.01885 18.0613 3.14732 18.114C3.2758 18.1646 4.02683 17.9173 4.29228 17.9014C4.29228 17.9014 4.29228 17.9014 4.54829 17.8159C4.74762 17.7504 5.11509 17.9967 5.27569 17.9143C5.55059 17.7752 5.67341 17.798 5.92375 17.9391C6.07679 18.0246 6.40646 17.9858 6.59446 17.9014C7.14993 17.649 7.14994 17.649 7.14994 17.649C7.0942 17.9441 7.4853 17.8477 8.01999 17.4344C8.01999 17.4344 8.01999 17.4344 8.80596 17.5636C8.93255 17.5844 8.93254 17.5844 8.93254 17.5844C9.09786 17.4871 9.32269 17.4484 9.43133 17.498C9.54186 17.5477 10.172 17.5179 10.6235 17.1652C10.6235 17.1652 10.6235 17.1652 11.2649 17.4752C11.4643 17.5715 11.9838 17.2894 12.0953 17.3917C12.4515 17.7136 12.4515 17.7136 12.4515 17.7136C12.7216 17.5328 13.2072 17.2566 13.5284 17.0996C13.5284 17.0996 13.5284 17.0996 13.8033 17.041C14.0848 16.9824 14.4702 16.9814 14.7669 17.0341C15.2591 17.1215 15.686 17.2248 16.164 16.9655C16.5381 16.7638 16.5382 16.7638 16.5382 16.7638C17.0389 16.742 17.4932 16.7927 17.5461 16.8781C17.5461 16.8781 17.5461 16.8781 17.6066 16.9496C17.7246 17.0897 17.7246 17.0897 17.7246 17.0897C17.8645 17.2447 18.1063 17.1781 18.2603 16.9427C18.4152 16.7072 19.5177 16.9029 19.8748 16.9258C20.2309 16.9486 21.2852 16.4906 21.5554 16.4738C21.5554 16.4738 21.5553 16.4738 21.8085 16.4827C22.3951 16.5046 22.6975 16.4837 22.9572 16.3853C23.0649 16.3446 23.1774 16.2621 23.2794 16.2721C23.473 16.29 23.473 16.2899 23.473 16.2899C23.645 16.2085 23.9955 16.0853 24.2534 16.0148C24.2534 16.0148 24.2533 16.0148 24.4687 16.0635C24.6463 16.1022 24.6463 16.1022 24.6463 16.1022C24.8079 16.2959 24.9298 16.2284 24.9184 15.9512C24.9184 15.9512 24.9184 15.9512 25.4153 16.0277C25.7167 16.0744 26.0926 16.1608 26.3619 15.8866C26.3798 15.8687 26.5282 15.9045 26.53 15.9234C26.5508 16.1052 26.565 16.3287 26.8559 16.2462C26.991 16.2075 27.0222 15.9253 27.162 15.8697C27.4823 15.7435 27.8394 15.6313 28.1842 15.6223C28.5847 15.6114 28.5847 15.6114 28.5847 15.6114C29.0401 15.6631 29.5606 15.6492 29.741 15.5796C29.9224 15.5101 30.561 15.4197 30.7263 15.4376C30.8926 15.4555 31.4367 15.4733 31.5028 15.4167C31.5689 15.3601 31.8429 15.2031 31.8675 15.2756C31.893 15.3481 32.1244 15.5151 32.3105 15.4376C32.4957 15.3601 33.1059 15.218 33.2212 15.3064C33.3355 15.3948 33.7937 15.6263 33.9089 15.5657C34.0232 15.5041 34.2528 15.2041 34.3784 15.061C34.504 14.918 35.1077 14.9915 35.3212 14.9289C35.3212 14.9289 35.3212 14.9289 35.5404 14.9249C35.8134 14.919 35.8134 14.919 35.8134 14.919C36.1289 14.911 36.6607 14.9637 36.9942 15.0342C36.9942 15.0342 36.9942 15.0342 37.3126 15.0749C37.3976 15.0859 37.5072 15.064 37.5799 15.0243C38.2714 14.6477 38.2714 14.6478 38.2714 14.6478C38.6852 14.922 39.0395 15.0531 39.0602 14.9388C39.0801 14.8246 39.2936 14.5236 39.474 14.607C39.474 14.607 39.474 14.607 39.6167 14.6388C39.7546 14.6686 39.7546 14.6686 39.7546 14.6686C39.918 14.6666 40.2118 14.5027 40.4093 14.303C40.4093 14.303 40.4092 14.303 40.7408 14.2772C40.8721 14.2662 40.8722 14.2663 40.8722 14.2663C41.0139 14.0984 40.9997 13.8391 40.84 13.692C40.84 13.692 40.84 13.692 40.6672 13.6493C40.3724 13.5788 40.3875 13.7973 40.3242 13.9702C40.2987 14.0388 40.038 14.0487 39.8821 14.0745C39.5458 14.1292 39.1217 14.308 38.8902 14.1967C38.5067 14.0119 38.1534 14.1123 37.7935 14.0825C37.4137 14.0517 37.0263 14.0755 36.6437 14.0755C36.2602 14.0755 35.8719 14.0427 35.4941 14.0835C34.9537 14.1411 34.7667 13.7626 34.489 13.5222C34.1659 13.242 34.1659 13.242 34.1659 13.242C33.8173 13.243 33.3799 13.2937 33.1947 13.3543C33.0077 13.4149 32.7196 13.4337 32.5769 13.4536C32.4343 13.4725 31.9714 13.1844 31.8278 13.0969C31.6861 13.0095 31.1193 12.8188 31.0163 12.931C31.0163 12.931 31.0163 12.931 30.9464 13.0552C30.8378 13.247 30.8482 13.2499 31.2147 13.2589C31.2752 13.2609 31.3885 13.2877 31.3885 13.2976C31.38 13.398 31.3715 13.5748 31.329 13.5817C31.0787 13.6255 30.714 13.8202 30.6583 13.4158C30.6309 13.2102 30.6309 13.2102 30.6309 13.2102C30.6894 12.9569 30.7584 12.6985 30.7811 12.6379C30.8047 12.5764 30.7839 12.4293 30.6847 12.4562C30.6847 12.4562 30.6847 12.4562 30.594 12.476C30.4778 12.5009 30.3607 12.5227 30.2435 12.5446C29.7835 12.631 29.7835 12.631 29.7835 12.631C29.9687 12.8784 29.8751 13.2003 29.5757 13.3443C29.2762 13.4894 28.3674 13.4854 28.357 13.3751C28.357 13.3751 28.357 13.3751 28.3807 13.2807C28.4213 13.1277 28.4213 13.1277 28.4213 13.1277C28.4902 12.9638 28.4534 12.8386 28.3381 12.8496C28.2238 12.8605 27.8668 12.6231 27.9121 12.2873C27.9121 12.2873 27.9121 12.2873 27.8176 12.2565C26.9391 11.9694 26.9391 11.9693 26.9391 11.9693C27.1138 11.3435 27.4747 10.8855 27.7411 10.952C27.7411 10.952 27.7411 10.952 27.9338 11.0166C28.1171 11.0772 28.2834 11.1805 28.4713 11.2232C28.5715 11.2461 28.7217 11.2073 28.8095 11.1507C29.0306 11.0096 29.0306 11.0097 29.0306 11.0097C29.3093 10.9908 29.6824 10.8447 29.8591 10.6858C29.8591 10.6858 29.8591 10.6858 29.8496 10.5497C29.8383 10.4066 29.8383 10.4066 29.8383 10.4066C29.6418 10.2695 29.2895 10.1513 29.0533 10.1453C29.0533 10.1453 29.0533 10.1453 28.9002 10.2318C28.7746 10.3033 28.8936 10.6441 28.5781 10.5626C28.357 10.506 28.357 10.506 28.357 10.506C28.1379 10.3271 27.8847 10.3192 27.793 10.4891C27.7014 10.659 27.1573 10.4672 27.1819 10.4136C27.2083 10.3599 27.2017 10.1761 27.0864 10.1761C26.9712 10.1761 26.6028 10.2566 26.582 10.3559C26.5603 10.4543 26.4261 10.7404 26.3383 10.7305C26.3383 10.7305 26.3382 10.7305 26.3212 10.6987C26.2731 10.6073 26.2854 10.4851 26.2192 10.4096C25.9566 10.1046 25.9566 10.1046 25.9566 10.1046C25.5183 10.1215 25.1064 10.1304 25.0412 10.1245C24.976 10.1185 24.8768 9.73206 25.2065 9.30686C25.2065 9.30686 25.2065 9.30685 25.6732 9.54429C26.0322 9.72709 26.0322 9.7271 26.0322 9.7271C26.4327 9.71617 26.7671 9.55322 26.7775 9.36546C26.787 9.1767 26.7143 8.6432 26.5896 8.6432C26.4639 8.6432 26.121 8.72965 26.2381 8.83397C26.2381 8.83397 26.2381 8.83396 26.2731 8.92635C26.3061 9.01477 26.3061 9.01476 26.3061 9.01476C26.275 9.15881 26.0643 9.22737 25.8347 9.16776C25.6061 9.10715 25.2207 8.86872 25.4899 8.77136C25.4899 8.77136 25.4899 8.77137 25.4994 8.67699C25.5136 8.53889 25.3454 8.37199 25.2122 8.25079C25.1839 8.22396 24.9741 8.38689 24.857 8.37696C24.7342 8.36702 24.6095 8.2637 24.5179 8.17727C24.5008 8.16038 24.6246 8.02626 24.6964 7.95473C24.7134 7.93685 24.7134 7.93686 24.7134 7.93686C24.772 7.9458 25.1678 8.01336 25.5929 8.08687C26.017 8.16138 27.1582 7.80571 27.2697 7.88122C27.2697 7.88122 27.2697 7.88121 27.367 7.87326C27.4936 7.86233 27.6155 7.77591 27.726 7.70537C27.759 7.68451 27.7675 7.59708 27.7439 7.55834C27.709 7.49774 27.709 7.49773 27.709 7.49773C27.6382 7.44408 27.675 7.35865 27.7912 7.30798C27.9074 7.25632 28.3098 7.16791 28.3986 7.23845C28.4855 7.30898 28.802 7.44806 28.887 7.37553C28.9711 7.304 29.331 7.25632 29.4633 7.45999C29.5955 7.66464 29.9649 8.19317 29.9904 8.18622C30.0159 8.17926 30.014 7.84446 29.9271 7.457C29.9271 7.457 29.9271 7.457 29.8912 7.10233C29.8836 7.02782 29.8837 7.02782 29.8837 7.02782C30.0443 6.93542 30.2511 6.91854 30.3437 6.99007C30.3437 6.99007 30.3437 6.99008 30.3815 7.07155C30.4807 7.29011 30.4807 7.29011 30.4807 7.29011C30.5846 7.58815 30.8104 7.51959 30.9804 7.13611C30.9804 7.13611 30.9804 7.13612 31.2099 6.94836C31.4782 6.7288 31.4783 6.72878 31.4783 6.72878C31.6134 6.44266 31.7655 6.26384 31.8165 6.33239C31.8665 6.40094 32.2293 6.63043 32.4635 6.63043C32.4635 6.63043 32.4635 6.63042 32.6761 6.7258C32.8783 6.8172 32.8783 6.81721 32.8783 6.81721C33.1957 6.86689 33.4545 6.79634 33.4545 6.65924C33.4545 6.52314 33.5443 6.24993 33.6529 6.30854C33.6529 6.30854 33.6529 6.30856 33.7578 6.35128C34.0024 6.45063 34.248 6.6056 34.4984 6.61355C34.6212 6.61852 34.7506 6.23405 34.8895 6.22809C35.1389 6.21617 35.1389 6.21616 35.1389 6.21616C35.4355 6.22212 35.7463 6.26184 35.8295 6.30357C35.9135 6.3443 36.2517 6.26683 36.2338 5.97177C36.2338 5.97177 36.2338 5.97177 36.2744 5.77108C36.3216 5.54457 36.3216 5.54457 36.3216 5.54457C36.4322 5.30515 36.9659 5.25745 37.5082 5.43925C37.5082 5.43925 37.5081 5.43925 38.1269 4.94152C38.4972 4.64349 38.808 4.12689 39.4589 4.63158C39.4788 4.64747 39.4787 4.64746 39.4787 4.64746C39.7565 4.42493 40.1079 4.36135 40.259 4.5064C40.259 4.5064 40.2591 4.5064 40.4272 4.61072C40.5085 4.66138 40.5084 4.66138 40.5084 4.66138C40.6426 4.65443 40.9071 4.64647 41.0979 4.64349C41.2878 4.6415 41.8848 4.39612 42.1201 4.33353C42.3553 4.27194 43.2234 4.23517 43.5163 4.22524C43.8091 4.21431 44.4884 3.85071 44.6518 3.98582C44.8152 4.12193 45.1884 4.53718 45.1572 4.6405C45.126 4.74382 45.2092 5.10048 45.4482 5.08955C45.4482 5.08955 45.4482 5.08955 45.6824 5.1134C46.0669 5.15214 46.0669 5.15215 46.0669 5.15215C46.3012 4.92564 46.613 4.56899 46.7585 4.36036C46.9049 4.15074 47.4046 3.63314 47.5142 3.71659C47.5142 3.71659 47.5142 3.71659 47.603 3.7593C48.0489 3.97787 48.0489 3.97786 48.0489 3.97786C47.9808 4.22325 47.7995 4.50936 47.6455 4.61467C47.6455 4.61467 47.6455 4.61467 47.5841 4.73885C47.5359 4.83721 47.5359 4.83723 47.5359 4.83723C47.5917 4.98426 47.7041 5.08657 47.7853 5.06472C47.8666 5.04286 48.2964 4.73788 48.6336 4.48952C48.6336 4.48952 48.6336 4.4895 49.0928 4.67329C49.2231 4.72595 49.2231 4.72595 49.2231 4.72595C49.3554 4.79947 49.5717 4.66635 49.703 4.43189C49.8362 4.19643 50.3624 3.62318 50.5428 3.74538C50.5428 3.74538 50.5428 3.7454 50.7185 3.78911C51.0341 3.8666 51.034 3.86661 51.034 3.86661C51.3108 4.04047 51.6585 4.20934 51.8058 4.24212C51.9532 4.27391 51.94 4.74582 52.008 4.82032C52.0741 4.89484 52.3273 4.91768 52.3717 5.01604C52.418 5.11439 52.7883 4.96936 52.8337 4.8114C52.88 4.65443 53.5054 4.69615 53.6386 4.72595C53.7736 4.75576 54.2828 4.53521 54.7438 4.63655C54.7438 4.63655 54.7438 4.63654 55.1793 4.68026C55.5902 4.72099 55.5902 4.72098 55.5902 4.72098C56.0323 4.82529 56.4707 4.77464 56.5633 4.60873C56.6549 4.44282 56.3299 3.91726 56.3772 3.79705Z" fill="#EBA544"/>
</svg>
