<svg width="40" height="40" viewBox="0 0 40 40" fill="none" xmlns="http://www.w3.org/2000/svg">
<path fill-rule="evenodd" clip-rule="evenodd" d="M20 40C31.0457 40 40 31.0457 40 20C40 8.9543 31.0457 0 20 0C8.9543 0 0 8.9543 0 20C0 31.0457 8.9543 40 20 40ZM21.4407 10.0058C20.3177 10.0335 19.1328 10.2733 18.2958 10.9786C17.6046 11.5457 17.2563 12.3711 17.1781 13.1961C17.1542 13.7863 17.1577 14.3779 17.1611 14.9693C17.1636 15.4129 17.1662 15.8563 17.1572 16.2988C16.8498 16.3008 16.5415 16.3002 16.233 16.2997C15.8216 16.2989 15.4099 16.2982 15 16.3035C15 16.6566 15.0006 17.0102 15.0012 17.3642C15.0023 18.0731 15.0035 18.7834 15 19.4938C15.4099 19.4991 15.8216 19.4983 16.233 19.4976C16.5415 19.497 16.8498 19.4964 17.1572 19.4984C17.1642 20.9062 17.1629 22.3139 17.1616 23.7216C17.16 25.4812 17.1584 27.2408 17.1729 29.0003C18.0165 28.995 18.8584 28.9958 19.7004 28.9965C20.332 28.9971 20.9638 28.9976 21.5966 28.9957C21.6018 27.4119 21.6005 25.8293 21.5992 24.2467C21.5979 22.6643 21.5966 21.0819 21.6018 19.4984C22.0273 19.4964 22.4528 19.497 22.8783 19.4976C23.4456 19.4983 24.013 19.4991 24.5804 19.4938C24.7571 18.4333 24.9077 17.3636 24.9909 16.2896C24.4296 16.2873 23.8682 16.2873 23.3068 16.2873C22.7454 16.2873 22.184 16.2873 21.6226 16.2849C21.6226 16.0993 21.6223 15.9138 21.622 15.7282C21.621 15.1715 21.62 14.6149 21.6279 14.0582C21.7162 13.6293 22.2151 13.302 22.6987 13.3297H24.9961C25.0013 12.2187 25.0013 11.1122 24.9961 10.0012C24.6999 10.0012 24.4036 10.0009 24.1074 10.0006C23.2186 9.99971 22.3296 9.99884 21.4407 10.0058Z" fill="white"/>
</svg>
