<svg width="40" height="40" viewBox="0 0 40 40" fill="none" xmlns="http://www.w3.org/2000/svg">
<path fill-rule="evenodd" clip-rule="evenodd" d="M20 40C31.0457 40 40 31.0457 40 20C40 8.9543 31.0457 0 20 0C8.9543 0 0 8.9543 0 20C0 31.0457 8.9543 40 20 40ZM30 28V21.4227C30 17.8995 28.0966 16.2599 25.5568 16.2599C23.5075 16.2599 22.5919 17.3748 22.0792 18.1553V16.5295H18.2204C18.2723 17.6062 18.2204 28 18.2204 28H22.0798V21.5941C22.0798 21.2512 22.1061 20.9098 22.2079 20.6646C22.4872 19.9786 23.1215 19.2695 24.1876 19.2695C25.5838 19.2695 26.1419 20.3216 26.1419 21.8631V28H30ZM22.0792 18.1553V18.1925H22.0539C22.0577 18.1864 22.0622 18.1799 22.0668 18.1734C22.0711 18.1673 22.0754 18.1612 22.0792 18.1553ZM12 12.9816C12 11.8559 12.8633 11 14.1836 11C15.5043 11 16.3157 11.8559 16.341 12.9816C16.341 14.0827 15.5043 14.9646 14.1583 14.9646H14.1327C12.8387 14.9646 12 14.0827 12 12.9816ZM16.0871 28H12.2293V16.5295H16.0871V28Z" fill="white"/>
</svg>
