<svg width="150" height="40" viewBox="0 0 150 40" fill="none" xmlns="http://www.w3.org/2000/svg">
<g clip-path="url(#clip0_599_10638)">
<path fill-rule="evenodd" clip-rule="evenodd" d="M149.227 6.91533C148.697 6.32133 147.987 6.01933 147.027 6.01933C146.067 6.01933 145.335 6.33733 144.825 6.99333C144.315 7.62733 144.051 8.57933 144.051 9.82733V18.8753C142.871 17.6033 141.645 16.6913 140.401 16.0773C139.543 15.6736 138.628 15.4057 137.689 15.2833C137.067 15.2009 136.441 15.1608 135.815 15.1633C132.697 15.1633 130.171 16.2353 128.233 18.3793C126.317 20.5233 125.357 23.4993 125.357 27.3233C125.357 29.1313 125.603 30.8173 126.091 32.3633C126.583 33.9073 127.271 35.2593 128.211 36.4073C129.118 37.5252 130.258 38.4328 131.551 39.0673C132.855 39.69 134.283 40.0081 135.729 39.9973C136.419 39.9973 137.073 39.9393 137.683 39.8213C138.093 39.7613 138.477 39.6613 138.867 39.5413C139.818 39.226 140.718 38.7718 141.537 38.1933C142.453 37.5203 143.294 36.749 144.043 35.8933V36.4873C144.043 37.6173 144.329 38.4713 144.879 39.0873C145.451 39.6813 146.165 39.9973 147.019 39.9973C147.895 39.9973 148.607 39.6993 149.159 39.1273C149.705 38.5313 149.993 37.6593 149.993 36.4913V9.51533C150.001 8.38133 149.737 7.50733 149.227 6.91533ZM142.889 31.8693C142.339 33.0193 141.603 33.8733 140.709 34.4293C139.789 34.9873 138.789 35.2613 137.689 35.2613H137.669C136.6 35.2663 135.552 34.9643 134.651 34.3913C133.733 33.7953 133.001 32.9233 132.473 31.7733C131.945 30.6033 131.681 29.1933 131.681 27.5273C131.681 25.9593 131.923 24.5733 132.435 23.4033C132.925 22.2113 133.637 21.2993 134.535 20.6673C135.455 20.0113 136.475 19.7133 137.631 19.7133H137.691C138.773 19.7133 139.771 20.0293 140.689 20.6433C141.607 21.2593 142.339 22.1553 142.889 23.3233C143.439 24.4933 143.705 25.9033 143.705 27.5273C143.705 29.2713 143.439 30.7213 142.889 31.8693ZM123.097 32.1293C122.709 31.7933 122.179 31.6133 121.527 31.6133C120.935 31.6133 120.487 31.7533 120.161 32.0113C119.365 32.7233 118.735 33.2993 118.241 33.7153C117.757 34.1133 117.201 34.5093 116.615 34.8833C116.061 35.2379 115.457 35.5069 114.823 35.6813C114.151 35.8605 113.458 35.9467 112.763 35.9373C112.601 35.9373 112.437 35.9373 112.293 35.9173C111.372 35.8689 110.478 35.5963 109.687 35.1233C108.747 34.5893 108.015 33.7993 107.443 32.7653C106.893 31.6933 106.607 30.4653 106.589 29.0753H118.879C120.529 29.0753 121.811 28.8353 122.709 28.4013C123.629 27.9233 124.075 26.9313 124.075 25.4053C124.075 23.7393 123.627 22.1133 122.751 20.5053C121.875 18.9153 120.571 17.6073 118.799 16.5993C117.043 15.5873 114.945 15.0913 112.479 15.0913H112.297C110.483 15.1113 108.811 15.4113 107.325 15.9653C105.846 16.521 104.503 17.3863 103.387 18.5033C102.32 19.6527 101.503 21.0105 100.987 22.4913C100.42 24.1096 100.136 25.813 100.147 27.5273C100.147 31.3773 101.271 34.3913 103.511 36.6313C105.631 38.7553 108.565 39.8673 112.293 39.9853C112.499 40.0053 112.719 40.0053 112.947 40.0053C114.699 40.0053 116.267 39.7853 117.631 39.3313C118.997 38.8753 120.119 38.3173 121.019 37.6453C121.911 36.9513 122.585 36.2373 123.033 35.5053C123.481 34.7713 123.707 34.1153 123.707 33.5793C123.707 32.9593 123.507 32.4653 123.097 32.1293ZM108.425 20.9193C109.425 19.8673 110.707 19.3513 112.277 19.3513H112.301C113.929 19.3513 115.255 19.8673 116.253 20.8973C117.253 21.9313 117.843 23.4973 117.987 25.5973H106.591C106.793 23.5373 107.407 21.9693 108.425 20.9193ZM96.3345 31.6113C95.7245 31.6113 95.2765 31.7513 94.9505 32.0073C94.1765 32.7213 93.5245 33.2973 93.0345 33.7133C92.5445 34.1093 92.0145 34.5073 91.4225 34.8813C90.8345 35.2393 90.2405 35.5173 89.6105 35.6773C88.9391 35.8579 88.2457 35.9441 87.5505 35.9333C87.3905 35.9333 87.2265 35.9333 87.0825 35.9133C86.1618 35.8648 85.2667 35.593 84.4745 35.1213C83.5276 34.5588 82.7582 33.7409 82.2545 32.7613C81.6825 31.6913 81.3965 30.4613 81.3745 29.0733H93.6845C95.3145 29.0733 96.5965 28.8333 97.5145 28.3973C98.4105 27.9213 98.8625 26.9293 98.8625 25.4033C98.8625 23.7353 98.4325 22.1093 97.5565 20.5033C96.6805 18.9133 95.3565 17.6033 93.6045 16.5953C91.8485 15.5853 89.7305 15.0893 87.2885 15.0893H87.0825C85.2705 15.1093 83.6205 15.4093 82.1105 15.9633C80.6362 16.5125 79.3002 17.3782 78.1965 18.4993C77.1145 19.6415 76.2882 21.001 75.7725 22.4873C75.2049 24.1052 74.9207 25.8088 74.9325 27.5233C74.9325 31.3733 76.0765 34.3873 78.3165 36.6273C80.4365 38.7533 83.3505 39.8633 87.0805 39.9813C87.3045 40.0013 87.5045 40.0013 87.7325 40.0013C89.5045 40.0013 91.0545 39.7833 92.4185 39.3293C93.7825 38.8713 94.9065 38.3153 95.8005 37.6433C96.7205 36.9473 97.3705 36.2353 97.8205 35.5033C98.2665 34.7693 98.4945 34.1133 98.4945 33.5753C98.4945 32.9613 98.2885 32.4653 97.9025 32.1293C97.4985 31.7893 96.9645 31.6093 96.3345 31.6093V31.6113ZM83.2105 20.9193C84.2085 19.8673 85.4945 19.3513 87.0645 19.3513H87.0865C88.7145 19.3513 90.0405 19.8673 91.0385 20.8973C92.0565 21.9313 92.6285 23.4973 92.7925 25.5973H81.3785C81.6025 23.5373 82.2165 21.9693 83.2105 20.9193ZM13.0945 35.9373V21.3353C13.5185 21.3753 13.9285 21.3933 14.3565 21.3933C16.317 21.4025 18.2445 20.8889 19.9405 19.9053V35.9333C19.9405 37.3033 19.6145 38.3133 18.9805 38.9893C18.3505 39.6613 17.5145 39.9973 16.4965 39.9973C15.4965 39.9973 14.7025 39.6613 14.0505 38.9673C13.4205 38.2953 13.0945 37.2833 13.0945 35.9373ZM72.2945 6.91733C71.7645 6.32133 71.0325 6.01933 70.1145 6.01933C69.1545 6.01933 68.4225 6.33733 67.9105 6.99333C67.3825 7.62733 67.1365 8.57933 67.1365 9.82733V18.8753C65.9565 17.6033 64.7365 16.6913 63.4885 16.0773C62.6316 15.6763 61.7184 15.4085 60.7805 15.2833C60.1586 15.2007 59.5318 15.1606 58.9045 15.1633C55.7865 15.1633 53.2385 16.2353 51.3245 18.3793C49.4065 20.5233 48.4485 23.4993 48.4485 27.3233C48.4485 29.1313 48.6945 30.8173 49.1605 32.3633C49.6105 33.8358 50.3382 35.2086 51.3045 36.4073C52.2116 37.5259 53.3513 38.4336 54.6445 39.0673C55.9487 39.69 57.3774 40.0081 58.8225 39.9973C59.4945 39.9973 60.1465 39.9393 60.7765 39.8213C61.1865 39.7613 61.5725 39.6613 61.9605 39.5413C62.9121 39.226 63.8118 38.7718 64.6305 38.1933C65.4645 37.5973 66.2845 36.8233 67.1345 35.8933V36.4873C67.1345 37.6173 67.4225 38.4713 67.9725 39.0873C68.5225 39.6813 69.2585 39.9973 70.1125 39.9973C70.9465 39.9973 71.6825 39.6993 72.2325 39.1273C72.7825 38.5313 73.0445 37.6593 73.0445 36.4913V9.51533C73.0465 8.38133 72.8045 7.50733 72.2965 6.91533L72.2945 6.91733ZM65.9745 31.8693C65.4265 33.0193 64.6905 33.8733 63.7745 34.4293C62.8785 34.9873 61.8565 35.2613 60.7805 35.2613H60.7605C59.6605 35.2613 58.6605 34.9633 57.7445 34.3913C56.8085 33.7953 56.0945 32.9233 55.5645 31.7733C55.0365 30.6033 54.7705 29.1933 54.7705 27.5273C54.7705 25.9593 55.0165 24.5733 55.5025 23.4033C56.0105 22.2113 56.7045 21.2993 57.6225 20.6673C58.5185 20.0113 59.5585 19.7133 60.7005 19.7133H60.7805C61.8605 19.7133 62.8585 20.0293 63.7565 20.6433C64.6945 21.2593 65.4265 22.1553 65.9765 23.3233C66.5045 24.4933 66.7925 25.9033 66.7925 27.5273C66.7925 29.2713 66.5045 30.7213 65.9765 31.8693H65.9745ZM29.9905 18.4993V19.2553C31.1105 17.8253 32.3125 16.7953 33.6185 16.1193C34.9425 15.4673 36.4505 15.1273 38.1625 15.1273C39.8145 15.1273 41.3025 15.4873 42.6025 16.1793C43.8654 16.8366 44.886 17.8789 45.5165 19.1553C45.9465 19.9073 46.2125 20.7233 46.3325 21.5973C46.4545 22.4493 46.5145 23.5593 46.5145 24.9093V36.2793C46.5145 37.5073 46.2085 38.4393 45.6385 39.0533C45.0705 39.6873 44.3145 40.0033 43.3985 40.0033C42.4585 40.0033 41.7065 39.6873 41.1145 39.0353C40.5225 38.3973 40.2365 37.4693 40.2365 36.2793V26.0933C40.2365 24.0713 39.9505 22.5253 39.3805 21.4533C38.8105 20.3853 37.6465 19.8473 35.9405 19.8473C34.8165 19.8473 33.8005 20.1833 32.8805 20.8193C31.9422 21.4905 31.2317 22.4326 30.8445 23.5193C30.5385 24.4293 30.3965 26.1153 30.3965 28.6393V36.2753C30.3965 37.5233 30.0925 38.4353 29.5025 39.0733C28.9105 39.6873 28.1585 40.0033 27.2185 40.0033C26.3005 40.0033 25.5645 39.6873 24.9765 39.0353C24.3845 38.3973 24.1005 37.4693 24.1005 36.2793V18.5993C24.1005 17.4313 24.3665 16.5593 24.8965 15.9993C25.4045 15.4273 26.1165 15.1273 27.0365 15.1273C27.5865 15.1273 28.0765 15.2473 28.5225 15.5053C28.9705 15.7613 29.3345 16.1393 29.6025 16.6533C29.8665 17.1693 29.9905 17.7873 29.9905 18.4993ZM13.1325 0.94533C17.3725 -0.54267 22.2025 -0.462671 25.8285 2.58933C26.5025 3.20333 27.2745 3.97933 27.5805 4.88933C27.9485 6.04333 26.2985 4.76933 26.0725 4.61133C24.8885 3.85733 23.7085 3.22333 22.3845 2.78733C15.2525 0.64733 8.50452 4.51533 4.30852 10.5273C2.55652 13.1793 1.41452 15.9793 0.480517 19.0513C0.376517 19.3873 0.296517 19.8253 0.112517 20.1213C-0.0734832 20.4613 0.0325168 19.2113 0.0325168 19.1693C0.172517 17.8993 0.438517 16.6693 0.768517 15.4413C2.70252 8.89533 6.98052 3.44133 13.1345 0.94133L13.1325 0.94533ZM21.3445 12.7073C21.3076 14.0173 20.7612 15.2613 19.8216 16.1748C18.8819 17.0884 17.623 17.5994 16.3125 17.5994C15.002 17.5994 13.7431 17.0884 12.8035 16.1748C11.8638 15.2613 11.3175 14.0173 11.2805 12.7073C11.2615 12.0346 11.3777 11.3649 11.622 10.7378C11.8664 10.1107 12.234 9.53894 12.7031 9.05639C13.1723 8.57384 13.7334 8.19025 14.3534 7.92832C14.9733 7.6664 15.6395 7.53144 16.3125 7.53144C16.9855 7.53144 17.6517 7.6664 18.2717 7.92832C18.8916 8.19025 19.4528 8.57384 19.9219 9.05639C20.391 9.53894 20.7587 10.1107 21.003 10.7378C21.2474 11.3649 21.3635 12.0346 21.3445 12.7073Z" fill="white"/>
</g>
<defs>
<clipPath id="clip0_599_10638">
<rect width="150" height="40" fill="white"/>
</clipPath>
</defs>
</svg>
