<svg width="20" height="18" viewBox="0 0 20 18" fill="none" xmlns="http://www.w3.org/2000/svg">
<path fill-rule="evenodd" clip-rule="evenodd" d="M14.939 0C16.28 0 17.57 0.53 18.519 1.481C19.469 2.43 20 3.71 20 5.05V12.95C20 15.74 17.73 18 14.939 18H5.06C2.269 18 0 15.74 0 12.95V5.05C0 2.26 2.259 0 5.06 0H14.939ZM16.53 6.54L16.61 6.46C16.849 6.17 16.849 5.75 16.599 5.46C16.46 5.311 16.269 5.22 16.07 5.2C15.86 5.189 15.66 5.26 15.509 5.4L11 9C10.42 9.481 9.589 9.481 9 9L4.5 5.4C4.189 5.17 3.759 5.2 3.5 5.47C3.23 5.74 3.2 6.17 3.429 6.47L3.56 6.6L8.11 10.15C8.67 10.59 9.349 10.83 10.06 10.83C10.769 10.83 11.46 10.59 12.019 10.15L16.53 6.54Z" fill="#3C50E0"/>
</svg>
