<svg width="249" height="136" viewBox="0 0 249 136" fill="none" xmlns="http://www.w3.org/2000/svg">
<path fill-rule="evenodd" clip-rule="evenodd" d="M82.4897 62.9743C51.7224 21.0052 80.549 -34.4712 66.54 -83.4936C52.6647 -132.048 -10.0534 -171.23 2.10012 -218.336C14.084 -264.785 80.1589 -266.784 120.415 -292.309C162.113 -318.749 190.907 -368.528 241.943 -370.413C294.899 -372.369 344.738 -337.825 386.429 -302.134C427.632 -266.859 470.157 -223.241 474.529 -171.295C478.731 -121.37 428.545 -89.9702 407.989 -45.9742C389.695 -6.81967 391.391 41.281 360.975 71.7414C325.586 107.183 279.318 136.975 226.955 135.326C173.175 133.633 115.114 107.476 82.4897 62.9743Z" fill="url(#paint0_linear_599_10635)"/>
<defs>
<linearGradient id="paint0_linear_599_10635" x1="442.199" y1="-221.273" x2="-27.2543" y2="-111.254" gradientUnits="userSpaceOnUse">
<stop stop-color="#919DF4"/>
<stop offset="1" stop-color="#919DF4" stop-opacity="0"/>
</linearGradient>
</defs>
</svg>
