<svg width="269" height="177" viewBox="0 0 269 177" fill="none" xmlns="http://www.w3.org/2000/svg">
<path fill-rule="evenodd" clip-rule="evenodd" d="M-64.045 113.466C-71.191 83.9203 -35.3799 52.3784 -29.4464 20.238C-23.5695 -11.5956 -52.3785 -42.8541 -29.996 -70.9691C-7.92593 -98.6917 35.7172 -92.7977 69.7722 -104.392C105.048 -116.402 139.087 -144.389 172.902 -140.049C207.988 -135.547 229.835 -108.578 246.023 -81.7733C262.021 -55.2821 276.317 -23.4351 263.21 9.49002C250.613 41.1341 208.287 55.3256 181.388 80.5893C157.449 103.073 143.78 133.307 114.617 149.048C80.6859 167.364 41.4049 180.974 7.81171 174.284C-26.6906 167.413 -56.4677 144.795 -64.045 113.466Z" fill="url(#paint0_linear_599_10637)"/>
<defs>
<linearGradient id="paint0_linear_599_10637" x1="283.729" y1="-104.566" x2="-100.566" y2="159.499" gradientUnits="userSpaceOnUse">
<stop stop-color="#919DF4"/>
<stop offset="0.0001" stop-color="#5A6BE1"/>
<stop offset="1" stop-color="#8492FB" stop-opacity="0"/>
</linearGradient>
</defs>
</svg>
