<svg width="572" height="465" viewBox="0 0 572 465" fill="none" xmlns="http://www.w3.org/2000/svg">
<path fill-rule="evenodd" clip-rule="evenodd" d="M294.991 5.80827C354.763 2.20619 419.338 -8.88583 469.639 19.4134C520.824 48.2106 541.824 102.976 558.376 153.989C574.363 203.26 577.216 254.346 561.906 303.779C545.941 355.324 520.866 407.862 470.346 438.204C420.343 468.235 355.758 464.943 294.991 464.085C235.241 463.241 174.813 460.26 123.725 433.311C69.6501 404.785 18.1752 364.168 3.99567 310.581C-9.7966 258.457 27.1368 208.74 51.2855 159.548C73.0963 115.117 92.1174 67.8255 137.092 39.4539C182.052 11.0912 239.573 9.14792 294.991 5.80827Z" fill="#EEEFFB"/>
</svg>
