<svg width="153" height="144" viewBox="0 0 153 144" fill="none" xmlns="http://www.w3.org/2000/svg">
<path fill-rule="evenodd" clip-rule="evenodd" d="M76.2517 0.157619C90.8878 -0.876825 105.273 3.23865 117.858 10.791C131.382 18.9071 144.48 29.3355 149.698 44.233C154.971 59.2904 154.094 77.1053 145.87 90.7731C138.246 103.444 121.16 104.927 108.544 112.626C97.3671 119.448 88.719 129.267 76.2517 133.263C59.2483 138.712 38.6505 150.347 24.3871 139.597C10.0648 128.802 20.1491 105.197 15.8842 87.7637C12.0984 72.2891 -3.94583 58.7884 0.905461 43.6148C5.75637 28.4423 24.9176 24.3375 38.7052 16.3853C50.8135 9.4016 62.3126 1.1428 76.2517 0.157619Z" fill="#EEEFFB"/>
</svg>
