<svg width="1920" height="932" viewBox="0 0 1920 932" fill="none" xmlns="http://www.w3.org/2000/svg">
<mask id="mask0_599_10630" style="mask-type:alpha" maskUnits="userSpaceOnUse" x="0" y="0" width="1920" height="932">
<path fill-rule="evenodd" clip-rule="evenodd" d="M1920 864.488L1760 886.443C1600 907.3 1280 932 960 932C640 932 320 907.3 160 886.443L0 864.488V0H160C320 0 640 0 960 0C1280 0 1600 0 1760 0H1920V864.488Z" fill="url(#paint0_linear_599_10630)"/>
</mask>
<g mask="url(#mask0_599_10630)">
<path fill-rule="evenodd" clip-rule="evenodd" d="M1920 864.488L1760 886.443C1600 907.3 1280 932 960 932C640 932 320 907.3 160 886.443L0 864.488V0H160C320 0 640 0 960 0C1280 0 1600 0 1760 0H1920V864.488Z" fill="url(#paint1_linear_599_10630)"/>
<path fill-rule="evenodd" clip-rule="evenodd" d="M198.072 513.726C244.35 557.542 220.456 635.894 247.67 693.521C274.623 750.599 359.439 781.509 354.235 844.415C349.103 906.444 268.635 928.391 224.601 972.378C178.989 1017.94 153.966 1089.11 91.8818 1106.49C27.4631 1124.52 -40.6358 1095.67 -98.9961 1062.97C-156.674 1030.66 -217.682 988.222 -233.7 924.079C-249.095 862.431 -194.112 808.124 -177.984 746.664C-163.631 691.967 -175.584 631.88 -144.608 584.57C-108.568 529.524 -58.0502 478.394 6.38276 465.074C72.5594 451.393 149.001 467.266 198.072 513.726Z" fill="url(#paint2_linear_599_10630)"/>
<path fill-rule="evenodd" clip-rule="evenodd" d="M1557.52 841.409C1600.36 790.851 1683.07 811.164 1741.34 779.606C1799.05 748.35 1826.27 658.524 1891.88 660.319C1956.57 662.089 1983.97 744.371 2032.16 787.563C2082.08 832.304 2157.4 854.201 2179.01 917.658C2201.42 983.502 2175.37 1055.86 2144.77 1118.32C2114.53 1180.05 2073.98 1245.82 2008.3 1266.13C1945.18 1285.65 1885.65 1231.68 1820.92 1218.46C1763.31 1206.7 1701.62 1222.55 1650.72 1193.11C1591.51 1158.85 1535.53 1109.34 1518 1043.21C1500.01 975.288 1512.1 895.018 1557.52 841.409Z" fill="url(#paint3_linear_599_10630)"/>
<path fill-rule="evenodd" clip-rule="evenodd" d="M1753.49 62.9743C1722.72 21.0052 1751.55 -34.4712 1737.54 -83.4936C1723.66 -132.048 1660.95 -171.23 1673.1 -218.336C1685.08 -264.785 1751.16 -266.784 1791.41 -292.309C1833.11 -318.749 1861.91 -368.528 1912.94 -370.413C1965.9 -372.369 2015.74 -337.825 2057.43 -302.134C2098.63 -266.859 2141.16 -223.241 2145.53 -171.295C2149.73 -121.37 2099.54 -89.9702 2078.99 -45.9742C2060.69 -6.81967 2062.39 41.281 2031.98 71.7414C1996.59 107.183 1950.32 136.975 1897.96 135.326C1844.18 133.633 1786.11 107.476 1753.49 62.9743Z" fill="url(#paint4_linear_599_10630)"/>
<path fill-rule="evenodd" clip-rule="evenodd" d="M1066.43 -418.216C1107.36 -380.119 1086.98 -311.198 1111.28 -260.841C1135.36 -210.966 1210 -184.479 1205.91 -129.249C1201.87 -74.7895 1131.43 -54.9336 1093.13 -16.0123C1053.45 24.304 1032.02 86.9295 977.685 102.642C921.301 118.946 861.339 94.1387 809.892 65.8875C759.047 37.9668 705.203 1.19092 690.671 -54.9661C676.704 -108.938 724.538 -156.996 738.229 -211.038C750.414 -259.134 739.478 -311.763 766.302 -353.502C797.511 -402.066 841.451 -447.302 897.883 -459.47C955.841 -471.968 1023.03 -458.611 1066.43 -418.216Z" fill="url(#paint5_linear_599_10630)"/>
<path fill-rule="evenodd" clip-rule="evenodd" d="M-64.045 113.466C-71.191 83.9203 -35.3799 52.3784 -29.4464 20.238C-23.5695 -11.5956 -52.3785 -42.8541 -29.996 -70.9691C-7.92593 -98.6917 35.7172 -92.7977 69.7722 -104.392C105.048 -116.402 139.087 -144.389 172.902 -140.049C207.988 -135.547 229.835 -108.578 246.023 -81.7733C262.021 -55.2821 276.317 -23.4351 263.21 9.49002C250.613 41.1341 208.287 55.3256 181.388 80.5893C157.449 103.073 143.78 133.307 114.617 149.048C80.6859 167.364 41.4049 180.974 7.81171 174.284C-26.6906 167.413 -56.4677 144.795 -64.045 113.466Z" fill="url(#paint6_linear_599_10630)"/>
</g>
<defs>
<linearGradient id="paint0_linear_599_10630" x1="2040" y1="932" x2="-59" y2="-51.4999" gradientUnits="userSpaceOnUse">
<stop stop-color="#4455CE"/>
<stop offset="1" stop-color="#6676EC"/>
</linearGradient>
<linearGradient id="paint1_linear_599_10630" x1="2040" y1="932" x2="-59" y2="-51.4999" gradientUnits="userSpaceOnUse">
<stop stop-color="#4455CE"/>
<stop offset="1" stop-color="#6676EC"/>
</linearGradient>
<linearGradient id="paint2_linear_599_10630" x1="-183.865" y1="977.522" x2="385.269" y2="742.251" gradientUnits="userSpaceOnUse">
<stop stop-color="#919DF4"/>
<stop offset="1" stop-color="#919DF4" stop-opacity="0"/>
</linearGradient>
<linearGradient id="paint3_linear_599_10630" x1="2060.93" y1="1211.33" x2="1784.04" y2="633.958" gradientUnits="userSpaceOnUse">
<stop stop-color="#919DF4"/>
<stop offset="1" stop-color="#919DF4" stop-opacity="0"/>
</linearGradient>
<linearGradient id="paint4_linear_599_10630" x1="2113.2" y1="-221.273" x2="1643.75" y2="-111.254" gradientUnits="userSpaceOnUse">
<stop stop-color="#919DF4"/>
<stop offset="1" stop-color="#919DF4" stop-opacity="0"/>
</linearGradient>
<linearGradient id="paint5_linear_599_10630" x1="777.719" y1="123.384" x2="1084.39" y2="-502.963" gradientUnits="userSpaceOnUse">
<stop stop-color="#919DF4"/>
<stop offset="0.0001" stop-color="#5A6BE1"/>
<stop offset="1" stop-color="#8492FB" stop-opacity="0"/>
</linearGradient>
<linearGradient id="paint6_linear_599_10630" x1="283.729" y1="-104.566" x2="-100.566" y2="159.499" gradientUnits="userSpaceOnUse">
<stop stop-color="#919DF4"/>
<stop offset="0.0001" stop-color="#5A6BE1"/>
<stop offset="1" stop-color="#8492FB" stop-opacity="0"/>
</linearGradient>
</defs>
</svg>
