<svg width="167" height="162" viewBox="0 0 167 162" fill="none" xmlns="http://www.w3.org/2000/svg">
<path fill-rule="evenodd" clip-rule="evenodd" d="M162.855 42.688C171.208 58.5852 162.313 77.4228 159.099 95.0751C156.171 111.16 156.366 129.061 144.995 140.784C133.77 152.357 116.037 152.474 100.249 155.748C84.5484 159.004 68.9988 163.873 53.4864 159.762C36.1056 155.156 18.5443 146.841 9.01565 131.571C-0.645642 116.088 -2.01832 96.1219 2.80442 78.5405C7.2353 62.3876 23.1691 53.5386 33.9355 40.7249C45.2282 27.285 50.5459 6.74954 67.3591 1.71054C84.3503 -3.38181 101.078 8.70752 117.398 15.7107C133.993 22.8312 154.45 26.6911 162.855 42.688Z" fill="#EEEFFB"/>
</svg>
